<?xml version="1.0" encoding="utf-8" standalone="no"?>
<!DOCTYPE svg PUBLIC "-//W3C//DTD SVG 1.1//EN"
  "http://www.w3.org/Graphics/SVG/1.1/DTD/svg11.dtd">
<!-- Created with matplotlib (https://matplotlib.org/) -->
<svg height="460.8pt" version="1.1" viewBox="0 0 983.52 460.8" width="983.52pt" xmlns="http://www.w3.org/2000/svg" xmlns:xlink="http://www.w3.org/1999/xlink">
 <defs>
  <style type="text/css">
*{stroke-linecap:butt;stroke-linejoin:round;}
  </style>
 </defs>
 <g id="figure_1">
  <g id="patch_1">
   <path d="M 0 460.8 
L 983.52 460.8 
L 983.52 0 
L 0 0 
z
" style="fill:#ffffff;"/>
  </g>
  <g id="axes_1">
   <g id="patch_2">
    <path d="M 122.94 410.112 
L 885.168 410.112 
L 885.168 55.296 
L 122.94 55.296 
z
" style="fill:#ffffff;"/>
   </g>
   <g id="matplotlib.axis_1">
    <g id="xtick_1">
     <g id="line2d_1">
      <defs>
       <path d="M 0 0 
L 0 3.5 
" id="m2b33c799e5" style="stroke:#000000;stroke-width:0.8;"/>
      </defs>
      <g>
       <use style="stroke:#000000;stroke-width:0.8;" x="146.944499" xlink:href="#m2b33c799e5" y="410.112"/>
      </g>
     </g>
     <g id="text_1">
      <!-- 0.0 -->
      <defs>
       <path d="M 31.78125 66.40625 
Q 24.171875 66.40625 20.328125 58.90625 
Q 16.5 51.421875 16.5 36.375 
Q 16.5 21.390625 20.328125 13.890625 
Q 24.171875 6.390625 31.78125 6.390625 
Q 39.453125 6.390625 43.28125 13.890625 
Q 47.125 21.390625 47.125 36.375 
Q 47.125 51.421875 43.28125 58.90625 
Q 39.453125 66.40625 31.78125 66.40625 
z
M 31.78125 74.21875 
Q 44.046875 74.21875 50.515625 64.515625 
Q 56.984375 54.828125 56.984375 36.375 
Q 56.984375 17.96875 50.515625 8.265625 
Q 44.046875 -1.421875 31.78125 -1.421875 
Q 19.53125 -1.421875 13.0625 8.265625 
Q 6.59375 17.96875 6.59375 36.375 
Q 6.59375 54.828125 13.0625 64.515625 
Q 19.53125 74.21875 31.78125 74.21875 
z
" id="DejaVuSans-48"/>
       <path d="M 10.6875 12.40625 
L 21 12.40625 
L 21 0 
L 10.6875 0 
z
" id="DejaVuSans-46"/>
      </defs>
      <g transform="translate(138.992936 424.710438)scale(0.1 -0.1)">
       <use xlink:href="#DejaVuSans-48"/>
       <use x="63.623047" xlink:href="#DejaVuSans-46"/>
       <use x="95.410156" xlink:href="#DejaVuSans-48"/>
      </g>
     </g>
    </g>
    <g id="xtick_2">
     <g id="line2d_2">
      <g>
       <use style="stroke:#000000;stroke-width:0.8;" x="291.919826" xlink:href="#m2b33c799e5" y="410.112"/>
      </g>
     </g>
     <g id="text_2">
      <!-- 0.2 -->
      <defs>
       <path d="M 19.1875 8.296875 
L 53.609375 8.296875 
L 53.609375 0 
L 7.328125 0 
L 7.328125 8.296875 
Q 12.9375 14.109375 22.625 23.890625 
Q 32.328125 33.6875 34.8125 36.53125 
Q 39.546875 41.84375 41.421875 45.53125 
Q 43.3125 49.21875 43.3125 52.78125 
Q 43.3125 58.59375 39.234375 62.25 
Q 35.15625 65.921875 28.609375 65.921875 
Q 23.96875 65.921875 18.8125 64.3125 
Q 13.671875 62.703125 7.8125 59.421875 
L 7.8125 69.390625 
Q 13.765625 71.78125 18.9375 73 
Q 24.125 74.21875 28.421875 74.21875 
Q 39.75 74.21875 46.484375 68.546875 
Q 53.21875 62.890625 53.21875 53.421875 
Q 53.21875 48.921875 51.53125 44.890625 
Q 49.859375 40.875 45.40625 35.40625 
Q 44.1875 33.984375 37.640625 27.21875 
Q 31.109375 20.453125 19.1875 8.296875 
z
" id="DejaVuSans-50"/>
      </defs>
      <g transform="translate(283.968264 424.710438)scale(0.1 -0.1)">
       <use xlink:href="#DejaVuSans-48"/>
       <use x="63.623047" xlink:href="#DejaVuSans-46"/>
       <use x="95.410156" xlink:href="#DejaVuSans-50"/>
      </g>
     </g>
    </g>
    <g id="xtick_3">
     <g id="line2d_3">
      <g>
       <use style="stroke:#000000;stroke-width:0.8;" x="436.895154" xlink:href="#m2b33c799e5" y="410.112"/>
      </g>
     </g>
     <g id="text_3">
      <!-- 0.4 -->
      <defs>
       <path d="M 37.796875 64.3125 
L 12.890625 25.390625 
L 37.796875 25.390625 
z
M 35.203125 72.90625 
L 47.609375 72.90625 
L 47.609375 25.390625 
L 58.015625 25.390625 
L 58.015625 17.1875 
L 47.609375 17.1875 
L 47.609375 0 
L 37.796875 0 
L 37.796875 17.1875 
L 4.890625 17.1875 
L 4.890625 26.703125 
z
" id="DejaVuSans-52"/>
      </defs>
      <g transform="translate(428.943591 424.710438)scale(0.1 -0.1)">
       <use xlink:href="#DejaVuSans-48"/>
       <use x="63.623047" xlink:href="#DejaVuSans-46"/>
       <use x="95.410156" xlink:href="#DejaVuSans-52"/>
      </g>
     </g>
    </g>
    <g id="xtick_4">
     <g id="line2d_4">
      <g>
       <use style="stroke:#000000;stroke-width:0.8;" x="581.870481" xlink:href="#m2b33c799e5" y="410.112"/>
      </g>
     </g>
     <g id="text_4">
      <!-- 0.6 -->
      <defs>
       <path d="M 33.015625 40.375 
Q 26.375 40.375 22.484375 35.828125 
Q 18.609375 31.296875 18.609375 23.390625 
Q 18.609375 15.53125 22.484375 10.953125 
Q 26.375 6.390625 33.015625 6.390625 
Q 39.65625 6.390625 43.53125 10.953125 
Q 47.40625 15.53125 47.40625 23.390625 
Q 47.40625 31.296875 43.53125 35.828125 
Q 39.65625 40.375 33.015625 40.375 
z
M 52.59375 71.296875 
L 52.59375 62.3125 
Q 48.875 64.0625 45.09375 64.984375 
Q 41.3125 65.921875 37.59375 65.921875 
Q 27.828125 65.921875 22.671875 59.328125 
Q 17.53125 52.734375 16.796875 39.40625 
Q 19.671875 43.65625 24.015625 45.921875 
Q 28.375 48.1875 33.59375 48.1875 
Q 44.578125 48.1875 50.953125 41.515625 
Q 57.328125 34.859375 57.328125 23.390625 
Q 57.328125 12.15625 50.6875 5.359375 
Q 44.046875 -1.421875 33.015625 -1.421875 
Q 20.359375 -1.421875 13.671875 8.265625 
Q 6.984375 17.96875 6.984375 36.375 
Q 6.984375 53.65625 15.1875 63.9375 
Q 23.390625 74.21875 37.203125 74.21875 
Q 40.921875 74.21875 44.703125 73.484375 
Q 48.484375 72.75 52.59375 71.296875 
z
" id="DejaVuSans-54"/>
      </defs>
      <g transform="translate(573.918918 424.710438)scale(0.1 -0.1)">
       <use xlink:href="#DejaVuSans-48"/>
       <use x="63.623047" xlink:href="#DejaVuSans-46"/>
       <use x="95.410156" xlink:href="#DejaVuSans-54"/>
      </g>
     </g>
    </g>
    <g id="xtick_5">
     <g id="line2d_5">
      <g>
       <use style="stroke:#000000;stroke-width:0.8;" x="726.845808" xlink:href="#m2b33c799e5" y="410.112"/>
      </g>
     </g>
     <g id="text_5">
      <!-- 0.8 -->
      <defs>
       <path d="M 31.78125 34.625 
Q 24.75 34.625 20.71875 30.859375 
Q 16.703125 27.09375 16.703125 20.515625 
Q 16.703125 13.921875 20.71875 10.15625 
Q 24.75 6.390625 31.78125 6.390625 
Q 38.8125 6.390625 42.859375 10.171875 
Q 46.921875 13.96875 46.921875 20.515625 
Q 46.921875 27.09375 42.890625 30.859375 
Q 38.875 34.625 31.78125 34.625 
z
M 21.921875 38.8125 
Q 15.578125 40.375 12.03125 44.71875 
Q 8.5 49.078125 8.5 55.328125 
Q 8.5 64.0625 14.71875 69.140625 
Q 20.953125 74.21875 31.78125 74.21875 
Q 42.671875 74.21875 48.875 69.140625 
Q 55.078125 64.0625 55.078125 55.328125 
Q 55.078125 49.078125 51.53125 44.71875 
Q 48 40.375 41.703125 38.8125 
Q 48.828125 37.15625 52.796875 32.3125 
Q 56.78125 27.484375 56.78125 20.515625 
Q 56.78125 9.90625 50.3125 4.234375 
Q 43.84375 -1.421875 31.78125 -1.421875 
Q 19.734375 -1.421875 13.25 4.234375 
Q 6.78125 9.90625 6.78125 20.515625 
Q 6.78125 27.484375 10.78125 32.3125 
Q 14.796875 37.15625 21.921875 38.8125 
z
M 18.3125 54.390625 
Q 18.3125 48.734375 21.84375 45.5625 
Q 25.390625 42.390625 31.78125 42.390625 
Q 38.140625 42.390625 41.71875 45.5625 
Q 45.3125 48.734375 45.3125 54.390625 
Q 45.3125 60.0625 41.71875 63.234375 
Q 38.140625 66.40625 31.78125 66.40625 
Q 25.390625 66.40625 21.84375 63.234375 
Q 18.3125 60.0625 18.3125 54.390625 
z
" id="DejaVuSans-56"/>
      </defs>
      <g transform="translate(718.894246 424.710438)scale(0.1 -0.1)">
       <use xlink:href="#DejaVuSans-48"/>
       <use x="63.623047" xlink:href="#DejaVuSans-46"/>
       <use x="95.410156" xlink:href="#DejaVuSans-56"/>
      </g>
     </g>
    </g>
    <g id="xtick_6">
     <g id="line2d_6">
      <g>
       <use style="stroke:#000000;stroke-width:0.8;" x="871.821136" xlink:href="#m2b33c799e5" y="410.112"/>
      </g>
     </g>
     <g id="text_6">
      <!-- 1.0 -->
      <defs>
       <path d="M 12.40625 8.296875 
L 28.515625 8.296875 
L 28.515625 63.921875 
L 10.984375 60.40625 
L 10.984375 69.390625 
L 28.421875 72.90625 
L 38.28125 72.90625 
L 38.28125 8.296875 
L 54.390625 8.296875 
L 54.390625 0 
L 12.40625 0 
z
" id="DejaVuSans-49"/>
      </defs>
      <g transform="translate(863.869573 424.710438)scale(0.1 -0.1)">
       <use xlink:href="#DejaVuSans-49"/>
       <use x="63.623047" xlink:href="#DejaVuSans-46"/>
       <use x="95.410156" xlink:href="#DejaVuSans-48"/>
      </g>
     </g>
    </g>
   </g>
   <g id="matplotlib.axis_2">
    <g id="ytick_1">
     <g id="line2d_7">
      <defs>
       <path d="M 0 0 
L -3.5 0 
" id="m3f0e8e068c" style="stroke:#000000;stroke-width:0.8;"/>
      </defs>
      <g>
       <use style="stroke:#000000;stroke-width:0.8;" x="122.94" xlink:href="#m3f0e8e068c" y="409.969232"/>
      </g>
     </g>
     <g id="text_7">
      <!-- −0.1 -->
      <defs>
       <path d="M 10.59375 35.5 
L 73.1875 35.5 
L 73.1875 27.203125 
L 10.59375 27.203125 
z
" id="DejaVuSans-8722"/>
      </defs>
      <g transform="translate(91.657187 413.768451)scale(0.1 -0.1)">
       <use xlink:href="#DejaVuSans-8722"/>
       <use x="83.789062" xlink:href="#DejaVuSans-48"/>
       <use x="147.412109" xlink:href="#DejaVuSans-46"/>
       <use x="179.199219" xlink:href="#DejaVuSans-49"/>
      </g>
     </g>
    </g>
    <g id="ytick_2">
     <g id="line2d_8">
      <g>
       <use style="stroke:#000000;stroke-width:0.8;" x="122.94" xlink:href="#m3f0e8e068c" y="337.481568"/>
      </g>
     </g>
     <g id="text_8">
      <!-- 0.0 -->
      <g transform="translate(100.036875 341.280787)scale(0.1 -0.1)">
       <use xlink:href="#DejaVuSans-48"/>
       <use x="63.623047" xlink:href="#DejaVuSans-46"/>
       <use x="95.410156" xlink:href="#DejaVuSans-48"/>
      </g>
     </g>
    </g>
    <g id="ytick_3">
     <g id="line2d_9">
      <g>
       <use style="stroke:#000000;stroke-width:0.8;" x="122.94" xlink:href="#m3f0e8e068c" y="264.993905"/>
      </g>
     </g>
     <g id="text_9">
      <!-- 0.1 -->
      <g transform="translate(100.036875 268.793123)scale(0.1 -0.1)">
       <use xlink:href="#DejaVuSans-48"/>
       <use x="63.623047" xlink:href="#DejaVuSans-46"/>
       <use x="95.410156" xlink:href="#DejaVuSans-49"/>
      </g>
     </g>
    </g>
    <g id="ytick_4">
     <g id="line2d_10">
      <g>
       <use style="stroke:#000000;stroke-width:0.8;" x="122.94" xlink:href="#m3f0e8e068c" y="192.506241"/>
      </g>
     </g>
     <g id="text_10">
      <!-- 0.2 -->
      <g transform="translate(100.036875 196.30546)scale(0.1 -0.1)">
       <use xlink:href="#DejaVuSans-48"/>
       <use x="63.623047" xlink:href="#DejaVuSans-46"/>
       <use x="95.410156" xlink:href="#DejaVuSans-50"/>
      </g>
     </g>
    </g>
    <g id="ytick_5">
     <g id="line2d_11">
      <g>
       <use style="stroke:#000000;stroke-width:0.8;" x="122.94" xlink:href="#m3f0e8e068c" y="120.018577"/>
      </g>
     </g>
     <g id="text_11">
      <!-- 0.3 -->
      <defs>
       <path d="M 40.578125 39.3125 
Q 47.65625 37.796875 51.625 33 
Q 55.609375 28.21875 55.609375 21.1875 
Q 55.609375 10.40625 48.1875 4.484375 
Q 40.765625 -1.421875 27.09375 -1.421875 
Q 22.515625 -1.421875 17.65625 -0.515625 
Q 12.796875 0.390625 7.625 2.203125 
L 7.625 11.71875 
Q 11.71875 9.328125 16.59375 8.109375 
Q 21.484375 6.890625 26.8125 6.890625 
Q 36.078125 6.890625 40.9375 10.546875 
Q 45.796875 14.203125 45.796875 21.1875 
Q 45.796875 27.640625 41.28125 31.265625 
Q 36.765625 34.90625 28.71875 34.90625 
L 20.21875 34.90625 
L 20.21875 43.015625 
L 29.109375 43.015625 
Q 36.375 43.015625 40.234375 45.921875 
Q 44.09375 48.828125 44.09375 54.296875 
Q 44.09375 59.90625 40.109375 62.90625 
Q 36.140625 65.921875 28.71875 65.921875 
Q 24.65625 65.921875 20.015625 65.03125 
Q 15.375 64.15625 9.8125 62.3125 
L 9.8125 71.09375 
Q 15.4375 72.65625 20.34375 73.4375 
Q 25.25 74.21875 29.59375 74.21875 
Q 40.828125 74.21875 47.359375 69.109375 
Q 53.90625 64.015625 53.90625 55.328125 
Q 53.90625 49.265625 50.4375 45.09375 
Q 46.96875 40.921875 40.578125 39.3125 
z
" id="DejaVuSans-51"/>
      </defs>
      <g transform="translate(100.036875 123.817796)scale(0.1 -0.1)">
       <use xlink:href="#DejaVuSans-48"/>
       <use x="63.623047" xlink:href="#DejaVuSans-46"/>
       <use x="95.410156" xlink:href="#DejaVuSans-51"/>
      </g>
     </g>
    </g>
   </g>
   <g id="line2d_12">
    <path clip-path="url(#p6bd9304bee)" d="M 146.944499 337.481568 
L 149.92753 337.481568 
L 151.419046 334.898187 
L 152.910562 337.481568 
L 155.893593 337.481568 
L 155.893593 337.481568 
L 157.385109 334.898187 
L 155.893593 332.314806 
L 158.876625 332.314806 
L 160.36814 329.731425 
L 160.36814 329.731425 
L 161.859656 332.314806 
L 164.842687 332.314806 
L 163.351172 334.898187 
L 164.842687 337.481568 
L 164.842687 337.481568 
L 167.825719 337.481568 
L 169.317235 334.898187 
L 170.80875 337.481568 
L 173.791782 337.481568 
L 173.791782 337.481568 
L 175.283297 334.898187 
L 173.791782 332.314806 
L 176.774813 332.314806 
L 178.266329 329.731425 
L 178.266329 329.731425 
L 176.774813 327.148044 
L 173.791782 327.148044 
L 175.283297 324.564663 
L 173.791782 321.981282 
L 173.791782 321.981282 
L 176.774813 321.981282 
L 178.266329 319.397901 
L 179.757845 321.981282 
L 182.740876 321.981282 
L 182.740876 321.981282 
L 184.232392 319.397901 
L 182.740876 316.81452 
L 185.723907 316.81452 
L 187.215423 314.231139 
L 187.215423 314.231139 
L 188.706939 316.81452 
L 191.68997 316.81452 
L 190.198455 319.397901 
L 191.68997 321.981282 
L 191.68997 321.981282 
L 194.673002 321.981282 
L 196.164517 319.397901 
L 197.656033 321.981282 
L 200.639065 321.981282 
L 200.639065 321.981282 
L 199.147549 324.564663 
L 200.639065 327.148044 
L 197.656033 327.148044 
L 196.164517 329.731425 
L 196.164517 329.731425 
L 197.656033 332.314806 
L 200.639065 332.314806 
L 199.147549 334.898187 
L 200.639065 337.481568 
L 200.639065 337.481568 
L 203.622096 337.481568 
L 205.113612 334.898187 
L 206.605127 337.481568 
L 209.588159 337.481568 
L 209.588159 337.481568 
L 211.079675 334.898187 
L 209.588159 332.314806 
L 212.57119 332.314806 
L 214.062706 329.731425 
L 214.062706 329.731425 
L 215.554222 332.314806 
L 218.537253 332.314806 
L 217.045737 334.898187 
L 218.537253 337.481568 
L 218.537253 337.481568 
L 221.520285 337.481568 
L 223.0118 334.898187 
L 224.503316 337.481568 
L 227.486347 337.481568 
L 227.486347 337.481568 
L 228.977863 334.898187 
L 227.486347 332.314806 
L 230.469379 332.314806 
L 231.960895 329.731425 
L 231.960895 329.731425 
L 230.469379 327.148044 
L 227.486347 327.148044 
L 228.977863 324.564663 
L 227.486347 321.981282 
L 227.486347 321.981282 
L 230.469379 321.981282 
L 231.960895 319.397901 
L 233.45241 321.981282 
L 236.435442 321.981282 
L 236.435442 321.981282 
L 237.926957 319.397901 
L 236.435442 316.81452 
L 239.418473 316.81452 
L 240.909989 314.231139 
L 240.909989 314.231139 
L 239.418473 311.647758 
L 236.435442 311.647758 
L 237.926957 309.064377 
L 236.435442 306.480996 
L 236.435442 306.480996 
L 233.45241 306.480996 
L 231.960895 309.064377 
L 230.469379 306.480996 
L 227.486347 306.480996 
L 227.486347 306.480996 
L 228.977863 303.897615 
L 227.486347 301.314234 
L 230.469379 301.314234 
L 231.960895 298.730853 
L 231.960895 298.730853 
L 230.469379 296.147472 
L 227.486347 296.147472 
L 228.977863 293.564091 
L 227.486347 290.98071 
L 227.486347 290.98071 
L 230.469379 290.98071 
L 231.960895 288.397329 
L 233.45241 290.98071 
L 236.435442 290.98071 
L 236.435442 290.98071 
L 237.926957 288.397329 
L 236.435442 285.813948 
L 239.418473 285.813948 
L 240.909989 283.230567 
L 240.909989 283.230567 
L 242.401505 285.813948 
L 245.384536 285.813948 
L 243.89302 288.397329 
L 245.384536 290.98071 
L 245.384536 290.98071 
L 248.367567 290.98071 
L 249.859083 288.397329 
L 251.350599 290.98071 
L 254.33363 290.98071 
L 254.33363 290.98071 
L 255.825146 288.397329 
L 254.33363 285.813948 
L 257.316662 285.813948 
L 258.808177 283.230567 
L 258.808177 283.230567 
L 257.316662 280.647186 
L 254.33363 280.647186 
L 255.825146 278.063805 
L 254.33363 275.480424 
L 254.33363 275.480424 
L 257.316662 275.480424 
L 258.808177 272.897043 
L 260.299693 275.480424 
L 263.282725 275.480424 
L 263.282725 275.480424 
L 264.77424 272.897043 
L 263.282725 270.313662 
L 266.265756 270.313662 
L 267.757272 267.730281 
L 267.757272 267.730281 
L 269.248787 270.313662 
L 272.231819 270.313662 
L 270.740303 272.897043 
L 272.231819 275.480424 
L 272.231819 275.480424 
L 275.21485 275.480424 
L 276.706366 272.897043 
L 278.197882 275.480424 
L 281.180913 275.480424 
L 281.180913 275.480424 
L 279.689397 278.063805 
L 281.180913 280.647186 
L 278.197882 280.647186 
L 276.706366 283.230567 
L 276.706366 283.230567 
L 278.197882 285.813948 
L 281.180913 285.813948 
L 279.689397 288.397329 
L 281.180913 290.98071 
L 281.180913 290.98071 
L 284.163945 290.98071 
L 285.65546 288.397329 
L 287.146976 290.98071 
L 290.130007 290.98071 
L 290.130007 290.98071 
L 291.621523 288.397329 
L 290.130007 285.813948 
L 293.113039 285.813948 
L 294.604555 283.230567 
L 294.604555 283.230567 
L 296.09607 285.813948 
L 299.079102 285.813948 
L 297.587586 288.397329 
L 299.079102 290.98071 
L 299.079102 290.98071 
L 302.062133 290.98071 
L 303.553649 288.397329 
L 305.045165 290.98071 
L 308.028196 290.98071 
L 308.028196 290.98071 
L 306.53668 293.564091 
L 308.028196 296.147472 
L 305.045165 296.147472 
L 303.553649 298.730853 
L 303.553649 298.730853 
L 305.045165 301.314234 
L 308.028196 301.314234 
L 306.53668 303.897615 
L 308.028196 306.480996 
L 308.028196 306.480996 
L 305.045165 306.480996 
L 303.553649 309.064377 
L 302.062133 306.480996 
L 299.079102 306.480996 
L 299.079102 306.480996 
L 297.587586 309.064377 
L 299.079102 311.647758 
L 296.09607 311.647758 
L 294.604555 314.231139 
L 294.604555 314.231139 
L 296.09607 316.81452 
L 299.079102 316.81452 
L 297.587586 319.397901 
L 299.079102 321.981282 
L 299.079102 321.981282 
L 302.062133 321.981282 
L 303.553649 319.397901 
L 305.045165 321.981282 
L 308.028196 321.981282 
L 308.028196 321.981282 
L 306.53668 324.564663 
L 308.028196 327.148044 
L 305.045165 327.148044 
L 303.553649 329.731425 
L 303.553649 329.731425 
L 305.045165 332.314806 
L 308.028196 332.314806 
L 306.53668 334.898187 
L 308.028196 337.481568 
L 308.028196 337.481568 
L 311.011227 337.481568 
L 312.502743 334.898187 
L 313.994259 337.481568 
L 316.97729 337.481568 
L 316.97729 337.481568 
L 318.468806 334.898187 
L 316.97729 332.314806 
L 319.960322 332.314806 
L 321.451837 329.731425 
L 321.451837 329.731425 
L 322.943353 332.314806 
L 325.926384 332.314806 
L 324.434869 334.898187 
L 325.926384 337.481568 
L 325.926384 337.481568 
L 328.909416 337.481568 
L 330.400932 334.898187 
L 331.892447 337.481568 
L 334.875479 337.481568 
L 334.875479 337.481568 
L 336.366994 334.898187 
L 334.875479 332.314806 
L 337.85851 332.314806 
L 339.350026 329.731425 
L 339.350026 329.731425 
L 337.85851 327.148044 
L 334.875479 327.148044 
L 336.366994 324.564663 
L 334.875479 321.981282 
L 334.875479 321.981282 
L 337.85851 321.981282 
L 339.350026 319.397901 
L 340.841542 321.981282 
L 343.824573 321.981282 
L 343.824573 321.981282 
L 345.316089 319.397901 
L 343.824573 316.81452 
L 346.807604 316.81452 
L 348.29912 314.231139 
L 348.29912 314.231139 
L 349.790636 316.81452 
L 352.773667 316.81452 
L 351.282152 319.397901 
L 352.773667 321.981282 
L 352.773667 321.981282 
L 355.756699 321.981282 
L 357.248214 319.397901 
L 358.73973 321.981282 
L 361.722762 321.981282 
L 361.722762 321.981282 
L 360.231246 324.564663 
L 361.722762 327.148044 
L 358.73973 327.148044 
L 357.248214 329.731425 
L 357.248214 329.731425 
L 358.73973 332.314806 
L 361.722762 332.314806 
L 360.231246 334.898187 
L 361.722762 337.481568 
L 361.722762 337.481568 
L 364.705793 337.481568 
L 366.197309 334.898187 
L 367.688824 337.481568 
L 370.671856 337.481568 
L 370.671856 337.481568 
L 372.163372 334.898187 
L 370.671856 332.314806 
L 373.654887 332.314806 
L 375.146403 329.731425 
L 375.146403 329.731425 
L 376.637919 332.314806 
L 379.62095 332.314806 
L 378.129434 334.898187 
L 379.62095 337.481568 
L 379.62095 337.481568 
L 382.603982 337.481568 
L 384.095497 334.898187 
L 385.587013 337.481568 
L 388.570044 337.481568 
L 388.570044 337.481568 
L 390.06156 334.898187 
L 388.570044 332.314806 
L 391.553076 332.314806 
L 393.044592 329.731425 
L 393.044592 329.731425 
L 391.553076 327.148044 
L 388.570044 327.148044 
L 390.06156 324.564663 
L 388.570044 321.981282 
L 388.570044 321.981282 
L 391.553076 321.981282 
L 393.044592 319.397901 
L 394.536107 321.981282 
L 397.519139 321.981282 
L 397.519139 321.981282 
L 399.010654 319.397901 
L 397.519139 316.81452 
L 400.50217 316.81452 
L 401.993686 314.231139 
L 401.993686 314.231139 
L 400.50217 311.647758 
L 397.519139 311.647758 
L 399.010654 309.064377 
L 397.519139 306.480996 
L 397.519139 306.480996 
L 394.536107 306.480996 
L 393.044592 309.064377 
L 391.553076 306.480996 
L 388.570044 306.480996 
L 388.570044 306.480996 
L 390.06156 303.897615 
L 388.570044 301.314234 
L 391.553076 301.314234 
L 393.044592 298.730853 
L 393.044592 298.730853 
L 391.553076 296.147472 
L 388.570044 296.147472 
L 390.06156 293.564091 
L 388.570044 290.98071 
L 388.570044 290.98071 
L 391.553076 290.98071 
L 393.044592 288.397329 
L 394.536107 290.98071 
L 397.519139 290.98071 
L 397.519139 290.98071 
L 399.010654 288.397329 
L 397.519139 285.813948 
L 400.50217 285.813948 
L 401.993686 283.230567 
L 401.993686 283.230567 
L 403.485202 285.813948 
L 406.468233 285.813948 
L 404.976717 288.397329 
L 406.468233 290.98071 
L 406.468233 290.98071 
L 409.451264 290.98071 
L 410.94278 288.397329 
L 412.434296 290.98071 
L 415.417327 290.98071 
L 415.417327 290.98071 
L 416.908843 288.397329 
L 415.417327 285.813948 
L 418.400359 285.813948 
L 419.891874 283.230567 
L 419.891874 283.230567 
L 418.400359 280.647186 
L 415.417327 280.647186 
L 416.908843 278.063805 
L 415.417327 275.480424 
L 415.417327 275.480424 
L 418.400359 275.480424 
L 419.891874 272.897043 
L 421.38339 275.480424 
L 424.366422 275.480424 
L 424.366422 275.480424 
L 425.857937 272.897043 
L 424.366422 270.313662 
L 427.349453 270.313662 
L 428.840969 267.730281 
L 428.840969 267.730281 
L 427.349453 265.1469 
L 424.366422 265.1469 
L 425.857937 262.563519 
L 424.366422 259.980138 
L 424.366422 259.980138 
L 421.38339 259.980138 
L 419.891874 262.563519 
L 418.400359 259.980138 
L 415.417327 259.980138 
L 415.417327 259.980138 
L 416.908843 257.396757 
L 415.417327 254.813376 
L 418.400359 254.813376 
L 419.891874 252.229995 
L 419.891874 252.229995 
L 418.400359 249.646614 
L 415.417327 249.646614 
L 416.908843 247.063233 
L 415.417327 244.479852 
L 415.417327 244.479852 
L 412.434296 244.479852 
L 410.94278 247.063233 
L 409.451264 244.479852 
L 406.468233 244.479852 
L 406.468233 244.479852 
L 404.976717 247.063233 
L 406.468233 249.646614 
L 403.485202 249.646614 
L 401.993686 252.229995 
L 401.993686 252.229995 
L 400.50217 249.646614 
L 397.519139 249.646614 
L 399.010654 247.063233 
L 397.519139 244.479852 
L 397.519139 244.479852 
L 394.536107 244.479852 
L 393.044592 247.063233 
L 391.553076 244.479852 
L 388.570044 244.479852 
L 388.570044 244.479852 
L 390.06156 241.896471 
L 388.570044 239.31309 
L 391.553076 239.31309 
L 393.044592 236.729709 
L 393.044592 236.729709 
L 391.553076 234.146328 
L 388.570044 234.146328 
L 390.06156 231.562947 
L 388.570044 228.979566 
L 388.570044 228.979566 
L 391.553076 228.979566 
L 393.044592 226.396185 
L 394.536107 228.979566 
L 397.519139 228.979566 
L 397.519139 228.979566 
L 399.010654 226.396185 
L 397.519139 223.812804 
L 400.50217 223.812804 
L 401.993686 221.229423 
L 401.993686 221.229423 
L 400.50217 218.646042 
L 397.519139 218.646042 
L 399.010654 216.062661 
L 397.519139 213.47928 
L 397.519139 213.47928 
L 394.536107 213.47928 
L 393.044592 216.062661 
L 391.553076 213.47928 
L 388.570044 213.47928 
L 388.570044 213.47928 
L 390.06156 210.895899 
L 388.570044 208.312518 
L 391.553076 208.312518 
L 393.044592 205.729137 
L 393.044592 205.729137 
L 391.553076 203.145756 
L 388.570044 203.145756 
L 390.06156 200.562375 
L 388.570044 197.978994 
L 388.570044 197.978994 
L 391.553076 197.978994 
L 393.044592 195.395613 
L 394.536107 197.978994 
L 397.519139 197.978994 
L 397.519139 197.978994 
L 399.010654 195.395613 
L 397.519139 192.812232 
L 400.50217 192.812232 
L 401.993686 190.228852 
L 401.993686 190.228852 
L 403.485202 192.812232 
L 406.468233 192.812232 
L 404.976717 195.395613 
L 406.468233 197.978994 
L 406.468233 197.978994 
L 409.451264 197.978994 
L 410.94278 195.395613 
L 412.434296 197.978994 
L 415.417327 197.978994 
L 415.417327 197.978994 
L 416.908843 195.395613 
L 415.417327 192.812232 
L 418.400359 192.812232 
L 419.891874 190.228852 
L 419.891874 190.228852 
L 418.400359 187.645471 
L 415.417327 187.645471 
L 416.908843 185.06209 
L 415.417327 182.478709 
L 415.417327 182.478709 
L 418.400359 182.478709 
L 419.891874 179.895328 
L 421.38339 182.478709 
L 424.366422 182.478709 
L 424.366422 182.478709 
L 425.857937 179.895328 
L 424.366422 177.311947 
L 427.349453 177.311947 
L 428.840969 174.728566 
L 428.840969 174.728566 
L 430.332484 177.311947 
L 433.315516 177.311947 
L 431.824 179.895328 
L 433.315516 182.478709 
L 433.315516 182.478709 
L 436.298547 182.478709 
L 437.790063 179.895328 
L 439.281579 182.478709 
L 442.26461 182.478709 
L 442.26461 182.478709 
L 440.773094 185.06209 
L 442.26461 187.645471 
L 439.281579 187.645471 
L 437.790063 190.228852 
L 437.790063 190.228852 
L 439.281579 192.812232 
L 442.26461 192.812232 
L 440.773094 195.395613 
L 442.26461 197.978994 
L 442.26461 197.978994 
L 445.247642 197.978994 
L 446.739157 195.395613 
L 448.230673 197.978994 
L 451.213704 197.978994 
L 451.213704 197.978994 
L 452.70522 195.395613 
L 451.213704 192.812232 
L 454.196736 192.812232 
L 455.688252 190.228852 
L 455.688252 190.228852 
L 457.179767 192.812232 
L 460.162799 192.812232 
L 458.671283 195.395613 
L 460.162799 197.978994 
L 460.162799 197.978994 
L 463.14583 197.978994 
L 464.637346 195.395613 
L 466.128862 197.978994 
L 469.111893 197.978994 
L 469.111893 197.978994 
L 470.603409 195.395613 
L 469.111893 192.812232 
L 472.094924 192.812232 
L 473.58644 190.228852 
L 473.58644 190.228852 
L 472.094924 187.645471 
L 469.111893 187.645471 
L 470.603409 185.06209 
L 469.111893 182.478709 
L 469.111893 182.478709 
L 472.094924 182.478709 
L 473.58644 179.895328 
L 475.077956 182.478709 
L 478.060987 182.478709 
L 478.060987 182.478709 
L 479.552503 179.895328 
L 478.060987 177.311947 
L 481.044019 177.311947 
L 482.535534 174.728566 
L 482.535534 174.728566 
L 481.044019 172.145185 
L 478.060987 172.145185 
L 479.552503 169.561804 
L 478.060987 166.978423 
L 478.060987 166.978423 
L 475.077956 166.978423 
L 473.58644 169.561804 
L 472.094924 166.978423 
L 469.111893 166.978423 
L 469.111893 166.978423 
L 470.603409 164.395042 
L 469.111893 161.811661 
L 472.094924 161.811661 
L 473.58644 159.22828 
L 473.58644 159.22828 
L 472.094924 156.644899 
L 469.111893 156.644899 
L 470.603409 154.061518 
L 469.111893 151.478137 
L 469.111893 151.478137 
L 472.094924 151.478137 
L 473.58644 148.894756 
L 475.077956 151.478137 
L 478.060987 151.478137 
L 478.060987 151.478137 
L 479.552503 148.894756 
L 478.060987 146.311375 
L 481.044019 146.311375 
L 482.535534 143.727994 
L 482.535534 143.727994 
L 484.02705 146.311375 
L 487.010082 146.311375 
L 485.518566 148.894756 
L 487.010082 151.478137 
L 487.010082 151.478137 
L 489.993113 151.478137 
L 491.484629 148.894756 
L 492.976144 151.478137 
L 495.959176 151.478137 
L 495.959176 151.478137 
L 497.450692 148.894756 
L 495.959176 146.311375 
L 498.942207 146.311375 
L 500.433723 143.727994 
L 500.433723 143.727994 
L 498.942207 141.144613 
L 495.959176 141.144613 
L 497.450692 138.561232 
L 495.959176 135.977851 
L 495.959176 135.977851 
L 498.942207 135.977851 
L 500.433723 133.39447 
L 501.925239 135.977851 
L 504.90827 135.977851 
L 504.90827 135.977851 
L 506.399786 133.39447 
L 504.90827 130.811089 
L 507.891302 130.811089 
L 509.382817 128.227708 
L 509.382817 128.227708 
L 510.874333 130.811089 
L 513.857364 130.811089 
L 512.365849 133.39447 
L 513.857364 135.977851 
L 513.857364 135.977851 
L 516.840396 135.977851 
L 518.331912 133.39447 
L 519.823427 135.977851 
L 522.806459 135.977851 
L 522.806459 135.977851 
L 521.314943 138.561232 
L 522.806459 141.144613 
L 519.823427 141.144613 
L 518.331912 143.727994 
L 518.331912 143.727994 
L 519.823427 146.311375 
L 522.806459 146.311375 
L 521.314943 148.894756 
L 522.806459 151.478137 
L 522.806459 151.478137 
L 525.78949 151.478137 
L 527.281006 148.894756 
L 528.772522 151.478137 
L 531.755553 151.478137 
L 531.755553 151.478137 
L 533.247069 148.894756 
L 531.755553 146.311375 
L 534.738584 146.311375 
L 536.2301 143.727994 
L 536.2301 143.727994 
L 537.721616 146.311375 
L 540.704647 146.311375 
L 539.213132 148.894756 
L 540.704647 151.478137 
L 540.704647 151.478137 
L 543.687679 151.478137 
L 545.179194 148.894756 
L 546.67071 151.478137 
L 549.653742 151.478137 
L 549.653742 151.478137 
L 548.162226 154.061518 
L 549.653742 156.644899 
L 546.67071 156.644899 
L 545.179194 159.22828 
L 545.179194 159.22828 
L 546.67071 161.811661 
L 549.653742 161.811661 
L 548.162226 164.395042 
L 549.653742 166.978423 
L 549.653742 166.978423 
L 546.67071 166.978423 
L 545.179194 169.561804 
L 543.687679 166.978423 
L 540.704647 166.978423 
L 540.704647 166.978423 
L 539.213132 169.561804 
L 540.704647 172.145185 
L 537.721616 172.145185 
L 536.2301 174.728566 
L 536.2301 174.728566 
L 537.721616 177.311947 
L 540.704647 177.311947 
L 539.213132 179.895328 
L 540.704647 182.478709 
L 540.704647 182.478709 
L 543.687679 182.478709 
L 545.179194 179.895328 
L 546.67071 182.478709 
L 549.653742 182.478709 
L 549.653742 182.478709 
L 548.162226 185.06209 
L 549.653742 187.645471 
L 546.67071 187.645471 
L 545.179194 190.228852 
L 545.179194 190.228852 
L 546.67071 192.812232 
L 549.653742 192.812232 
L 548.162226 195.395613 
L 549.653742 197.978994 
L 549.653742 197.978994 
L 552.636773 197.978994 
L 554.128289 195.395613 
L 555.619804 197.978994 
L 558.602836 197.978994 
L 558.602836 197.978994 
L 560.094352 195.395613 
L 558.602836 192.812232 
L 561.585867 192.812232 
L 563.077383 190.228852 
L 563.077383 190.228852 
L 564.568899 192.812232 
L 567.55193 192.812232 
L 566.060414 195.395613 
L 567.55193 197.978994 
L 567.55193 197.978994 
L 570.534962 197.978994 
L 572.026477 195.395613 
L 573.517993 197.978994 
L 576.501024 197.978994 
L 576.501024 197.978994 
L 577.99254 195.395613 
L 576.501024 192.812232 
L 579.484056 192.812232 
L 580.975572 190.228852 
L 580.975572 190.228852 
L 579.484056 187.645471 
L 576.501024 187.645471 
L 577.99254 185.06209 
L 576.501024 182.478709 
L 576.501024 182.478709 
L 579.484056 182.478709 
L 580.975572 179.895328 
L 582.467087 182.478709 
L 585.450119 182.478709 
L 585.450119 182.478709 
L 586.941634 179.895328 
L 585.450119 177.311947 
L 588.43315 177.311947 
L 589.924666 174.728566 
L 589.924666 174.728566 
L 591.416182 177.311947 
L 594.399213 177.311947 
L 592.907697 179.895328 
L 594.399213 182.478709 
L 594.399213 182.478709 
L 597.382244 182.478709 
L 598.87376 179.895328 
L 600.365276 182.478709 
L 603.348307 182.478709 
L 603.348307 182.478709 
L 601.856792 185.06209 
L 603.348307 187.645471 
L 600.365276 187.645471 
L 598.87376 190.228852 
L 598.87376 190.228852 
L 600.365276 192.812232 
L 603.348307 192.812232 
L 601.856792 195.395613 
L 603.348307 197.978994 
L 603.348307 197.978994 
L 606.331339 197.978994 
L 607.822854 195.395613 
L 609.31437 197.978994 
L 612.297402 197.978994 
L 612.297402 197.978994 
L 613.788917 195.395613 
L 612.297402 192.812232 
L 615.280433 192.812232 
L 616.771949 190.228852 
L 616.771949 190.228852 
L 618.263464 192.812232 
L 621.246496 192.812232 
L 619.75498 195.395613 
L 621.246496 197.978994 
L 621.246496 197.978994 
L 624.229527 197.978994 
L 625.721043 195.395613 
L 627.212559 197.978994 
L 630.19559 197.978994 
L 630.19559 197.978994 
L 628.704074 200.562375 
L 630.19559 203.145756 
L 627.212559 203.145756 
L 625.721043 205.729137 
L 625.721043 205.729137 
L 627.212559 208.312518 
L 630.19559 208.312518 
L 628.704074 210.895899 
L 630.19559 213.47928 
L 630.19559 213.47928 
L 627.212559 213.47928 
L 625.721043 216.062661 
L 624.229527 213.47928 
L 621.246496 213.47928 
L 621.246496 213.47928 
L 619.75498 216.062661 
L 621.246496 218.646042 
L 618.263464 218.646042 
L 616.771949 221.229423 
L 616.771949 221.229423 
L 618.263464 223.812804 
L 621.246496 223.812804 
L 619.75498 226.396185 
L 621.246496 228.979566 
L 621.246496 228.979566 
L 624.229527 228.979566 
L 625.721043 226.396185 
L 627.212559 228.979566 
L 630.19559 228.979566 
L 630.19559 228.979566 
L 628.704074 231.562947 
L 630.19559 234.146328 
L 627.212559 234.146328 
L 625.721043 236.729709 
L 625.721043 236.729709 
L 627.212559 239.31309 
L 630.19559 239.31309 
L 628.704074 241.896471 
L 630.19559 244.479852 
L 630.19559 244.479852 
L 627.212559 244.479852 
L 625.721043 247.063233 
L 624.229527 244.479852 
L 621.246496 244.479852 
L 621.246496 244.479852 
L 619.75498 247.063233 
L 621.246496 249.646614 
L 618.263464 249.646614 
L 616.771949 252.229995 
L 616.771949 252.229995 
L 615.280433 249.646614 
L 612.297402 249.646614 
L 613.788917 247.063233 
L 612.297402 244.479852 
L 612.297402 244.479852 
L 609.31437 244.479852 
L 607.822854 247.063233 
L 606.331339 244.479852 
L 603.348307 244.479852 
L 603.348307 244.479852 
L 601.856792 247.063233 
L 603.348307 249.646614 
L 600.365276 249.646614 
L 598.87376 252.229995 
L 598.87376 252.229995 
L 600.365276 254.813376 
L 603.348307 254.813376 
L 601.856792 257.396757 
L 603.348307 259.980138 
L 603.348307 259.980138 
L 600.365276 259.980138 
L 598.87376 262.563519 
L 597.382244 259.980138 
L 594.399213 259.980138 
L 594.399213 259.980138 
L 592.907697 262.563519 
L 594.399213 265.1469 
L 591.416182 265.1469 
L 589.924666 267.730281 
L 589.924666 267.730281 
L 591.416182 270.313662 
L 594.399213 270.313662 
L 592.907697 272.897043 
L 594.399213 275.480424 
L 594.399213 275.480424 
L 597.382244 275.480424 
L 598.87376 272.897043 
L 600.365276 275.480424 
L 603.348307 275.480424 
L 603.348307 275.480424 
L 601.856792 278.063805 
L 603.348307 280.647186 
L 600.365276 280.647186 
L 598.87376 283.230567 
L 598.87376 283.230567 
L 600.365276 285.813948 
L 603.348307 285.813948 
L 601.856792 288.397329 
L 603.348307 290.98071 
L 603.348307 290.98071 
L 606.331339 290.98071 
L 607.822854 288.397329 
L 609.31437 290.98071 
L 612.297402 290.98071 
L 612.297402 290.98071 
L 613.788917 288.397329 
L 612.297402 285.813948 
L 615.280433 285.813948 
L 616.771949 283.230567 
L 616.771949 283.230567 
L 618.263464 285.813948 
L 621.246496 285.813948 
L 619.75498 288.397329 
L 621.246496 290.98071 
L 621.246496 290.98071 
L 624.229527 290.98071 
L 625.721043 288.397329 
L 627.212559 290.98071 
L 630.19559 290.98071 
L 630.19559 290.98071 
L 628.704074 293.564091 
L 630.19559 296.147472 
L 627.212559 296.147472 
L 625.721043 298.730853 
L 625.721043 298.730853 
L 627.212559 301.314234 
L 630.19559 301.314234 
L 628.704074 303.897615 
L 630.19559 306.480996 
L 630.19559 306.480996 
L 627.212559 306.480996 
L 625.721043 309.064377 
L 624.229527 306.480996 
L 621.246496 306.480996 
L 621.246496 306.480996 
L 619.75498 309.064377 
L 621.246496 311.647758 
L 618.263464 311.647758 
L 616.771949 314.231139 
L 616.771949 314.231139 
L 618.263464 316.81452 
L 621.246496 316.81452 
L 619.75498 319.397901 
L 621.246496 321.981282 
L 621.246496 321.981282 
L 624.229527 321.981282 
L 625.721043 319.397901 
L 627.212559 321.981282 
L 630.19559 321.981282 
L 630.19559 321.981282 
L 628.704074 324.564663 
L 630.19559 327.148044 
L 627.212559 327.148044 
L 625.721043 329.731425 
L 625.721043 329.731425 
L 627.212559 332.314806 
L 630.19559 332.314806 
L 628.704074 334.898187 
L 630.19559 337.481568 
L 630.19559 337.481568 
L 633.178622 337.481568 
L 634.670137 334.898187 
L 636.161653 337.481568 
L 639.144684 337.481568 
L 639.144684 337.481568 
L 640.6362 334.898187 
L 639.144684 332.314806 
L 642.127716 332.314806 
L 643.619232 329.731425 
L 643.619232 329.731425 
L 645.110747 332.314806 
L 648.093779 332.314806 
L 646.602263 334.898187 
L 648.093779 337.481568 
L 648.093779 337.481568 
L 651.07681 337.481568 
L 652.568326 334.898187 
L 654.059842 337.481568 
L 657.042873 337.481568 
L 657.042873 337.481568 
L 658.534389 334.898187 
L 657.042873 332.314806 
L 660.025904 332.314806 
L 661.51742 329.731425 
L 661.51742 329.731425 
L 660.025904 327.148044 
L 657.042873 327.148044 
L 658.534389 324.564663 
L 657.042873 321.981282 
L 657.042873 321.981282 
L 660.025904 321.981282 
L 661.51742 319.397901 
L 663.008936 321.981282 
L 665.991967 321.981282 
L 665.991967 321.981282 
L 667.483483 319.397901 
L 665.991967 316.81452 
L 668.974999 316.81452 
L 670.466514 314.231139 
L 670.466514 314.231139 
L 671.95803 316.81452 
L 674.941062 316.81452 
L 673.449546 319.397901 
L 674.941062 321.981282 
L 674.941062 321.981282 
L 677.924093 321.981282 
L 679.415609 319.397901 
L 680.907124 321.981282 
L 683.890156 321.981282 
L 683.890156 321.981282 
L 682.39864 324.564663 
L 683.890156 327.148044 
L 680.907124 327.148044 
L 679.415609 329.731425 
L 679.415609 329.731425 
L 680.907124 332.314806 
L 683.890156 332.314806 
L 682.39864 334.898187 
L 683.890156 337.481568 
L 683.890156 337.481568 
L 686.873187 337.481568 
L 688.364703 334.898187 
L 689.856219 337.481568 
L 692.83925 337.481568 
L 692.83925 337.481568 
L 694.330766 334.898187 
L 692.83925 332.314806 
L 695.822282 332.314806 
L 697.313797 329.731425 
L 697.313797 329.731425 
L 698.805313 332.314806 
L 701.788344 332.314806 
L 700.296829 334.898187 
L 701.788344 337.481568 
L 701.788344 337.481568 
L 704.771376 337.481568 
L 706.262892 334.898187 
L 707.754407 337.481568 
L 710.737439 337.481568 
L 710.737439 337.481568 
L 712.228954 334.898187 
L 710.737439 332.314806 
L 713.72047 332.314806 
L 715.211986 329.731425 
L 715.211986 329.731425 
L 713.72047 327.148044 
L 710.737439 327.148044 
L 712.228954 324.564663 
L 710.737439 321.981282 
L 710.737439 321.981282 
L 713.72047 321.981282 
L 715.211986 319.397901 
L 716.703502 321.981282 
L 719.686533 321.981282 
L 719.686533 321.981282 
L 721.178049 319.397901 
L 719.686533 316.81452 
L 722.669564 316.81452 
L 724.16108 314.231139 
L 724.16108 314.231139 
L 722.669564 311.647758 
L 719.686533 311.647758 
L 721.178049 309.064377 
L 719.686533 306.480996 
L 719.686533 306.480996 
L 716.703502 306.480996 
L 715.211986 309.064377 
L 713.72047 306.480996 
L 710.737439 306.480996 
L 710.737439 306.480996 
L 712.228954 303.897615 
L 710.737439 301.314234 
L 713.72047 301.314234 
L 715.211986 298.730853 
L 715.211986 298.730853 
L 713.72047 296.147472 
L 710.737439 296.147472 
L 712.228954 293.564091 
L 710.737439 290.98071 
L 710.737439 290.98071 
L 713.72047 290.98071 
L 715.211986 288.397329 
L 716.703502 290.98071 
L 719.686533 290.98071 
L 719.686533 290.98071 
L 721.178049 288.397329 
L 719.686533 285.813948 
L 722.669564 285.813948 
L 724.16108 283.230567 
L 724.16108 283.230567 
L 725.652596 285.813948 
L 728.635627 285.813948 
L 727.144112 288.397329 
L 728.635627 290.98071 
L 728.635627 290.98071 
L 731.618659 290.98071 
L 733.110174 288.397329 
L 734.60169 290.98071 
L 737.584722 290.98071 
L 737.584722 290.98071 
L 739.076237 288.397329 
L 737.584722 285.813948 
L 740.567753 285.813948 
L 742.059269 283.230567 
L 742.059269 283.230567 
L 740.567753 280.647186 
L 737.584722 280.647186 
L 739.076237 278.063805 
L 737.584722 275.480424 
L 737.584722 275.480424 
L 740.567753 275.480424 
L 742.059269 272.897043 
L 743.550784 275.480424 
L 746.533816 275.480424 
L 746.533816 275.480424 
L 748.025331 272.897043 
L 746.533816 270.313662 
L 749.516847 270.313662 
L 751.008363 267.730281 
L 751.008363 267.730281 
L 752.499879 270.313662 
L 755.48291 270.313662 
L 753.991394 272.897043 
L 755.48291 275.480424 
L 755.48291 275.480424 
L 758.465941 275.480424 
L 759.957457 272.897043 
L 761.448973 275.480424 
L 764.432004 275.480424 
L 764.432004 275.480424 
L 762.940489 278.063805 
L 764.432004 280.647186 
L 761.448973 280.647186 
L 759.957457 283.230567 
L 759.957457 283.230567 
L 761.448973 285.813948 
L 764.432004 285.813948 
L 762.940489 288.397329 
L 764.432004 290.98071 
L 764.432004 290.98071 
L 767.415036 290.98071 
L 768.906551 288.397329 
L 770.398067 290.98071 
L 773.381099 290.98071 
L 773.381099 290.98071 
L 774.872614 288.397329 
L 773.381099 285.813948 
L 776.36413 285.813948 
L 777.855646 283.230567 
L 777.855646 283.230567 
L 779.347161 285.813948 
L 782.330193 285.813948 
L 780.838677 288.397329 
L 782.330193 290.98071 
L 782.330193 290.98071 
L 785.313224 290.98071 
L 786.80474 288.397329 
L 788.296256 290.98071 
L 791.279287 290.98071 
L 791.279287 290.98071 
L 789.787771 293.564091 
L 791.279287 296.147472 
L 788.296256 296.147472 
L 786.80474 298.730853 
L 786.80474 298.730853 
L 788.296256 301.314234 
L 791.279287 301.314234 
L 789.787771 303.897615 
L 791.279287 306.480996 
L 791.279287 306.480996 
L 788.296256 306.480996 
L 786.80474 309.064377 
L 785.313224 306.480996 
L 782.330193 306.480996 
L 782.330193 306.480996 
L 780.838677 309.064377 
L 782.330193 311.647758 
L 779.347161 311.647758 
L 777.855646 314.231139 
L 777.855646 314.231139 
L 779.347161 316.81452 
L 782.330193 316.81452 
L 780.838677 319.397901 
L 782.330193 321.981282 
L 782.330193 321.981282 
L 785.313224 321.981282 
L 786.80474 319.397901 
L 788.296256 321.981282 
L 791.279287 321.981282 
L 791.279287 321.981282 
L 789.787771 324.564663 
L 791.279287 327.148044 
L 788.296256 327.148044 
L 786.80474 329.731425 
L 786.80474 329.731425 
L 788.296256 332.314806 
L 791.279287 332.314806 
L 789.787771 334.898187 
L 791.279287 337.481568 
L 791.279287 337.481568 
L 794.262319 337.481568 
L 795.753834 334.898187 
L 797.24535 337.481568 
L 800.228381 337.481568 
L 800.228381 337.481568 
L 801.719897 334.898187 
L 800.228381 332.314806 
L 803.211413 332.314806 
L 804.702929 329.731425 
L 804.702929 329.731425 
L 806.194444 332.314806 
L 809.177476 332.314806 
L 807.68596 334.898187 
L 809.177476 337.481568 
L 809.177476 337.481568 
L 812.160507 337.481568 
L 813.652023 334.898187 
L 815.143539 337.481568 
L 818.12657 337.481568 
L 818.12657 337.481568 
L 819.618086 334.898187 
L 818.12657 332.314806 
L 821.109601 332.314806 
L 822.601117 329.731425 
L 822.601117 329.731425 
L 821.109601 327.148044 
L 818.12657 327.148044 
L 819.618086 324.564663 
L 818.12657 321.981282 
L 818.12657 321.981282 
L 821.109601 321.981282 
L 822.601117 319.397901 
L 824.092633 321.981282 
L 827.075664 321.981282 
L 827.075664 321.981282 
L 828.56718 319.397901 
L 827.075664 316.81452 
L 830.058696 316.81452 
L 831.550211 314.231139 
L 831.550211 314.231139 
L 833.041727 316.81452 
L 836.024759 316.81452 
L 834.533243 319.397901 
L 836.024759 321.981282 
L 836.024759 321.981282 
L 839.00779 321.981282 
L 840.499306 319.397901 
L 841.990821 321.981282 
L 844.973853 321.981282 
L 844.973853 321.981282 
L 843.482337 324.564663 
L 844.973853 327.148044 
L 841.990821 327.148044 
L 840.499306 329.731425 
L 840.499306 329.731425 
L 841.990821 332.314806 
L 844.973853 332.314806 
L 843.482337 334.898187 
L 844.973853 337.481568 
L 844.973853 337.481568 
L 847.956884 337.481568 
L 849.4484 334.898187 
L 850.939916 337.481568 
L 853.922947 337.481568 
L 853.922947 337.481568 
L 855.414463 334.898187 
L 853.922947 332.314806 
L 856.905979 332.314806 
L 858.397494 329.731425 
L 858.397494 329.731425 
L 859.88901 332.314806 
L 862.872041 332.314806 
L 861.380526 334.898187 
L 862.872041 337.481568 
L 862.872041 337.481568 
L 865.855073 337.481568 
L 867.346589 334.898187 
L 868.838104 337.481568 
L 871.821136 337.481568 
L 871.821136 337.481568 
" style="fill:none;stroke:#1f77b4;stroke-linecap:square;stroke-width:0.8;"/>
   </g>
   <g id="patch_3">
    <path d="M 122.94 410.112 
L 122.94 55.296 
" style="fill:none;stroke:#000000;stroke-linecap:square;stroke-linejoin:miter;stroke-width:0.8;"/>
   </g>
   <g id="patch_4">
    <path d="M 885.168 410.112 
L 885.168 55.296 
" style="fill:none;stroke:#000000;stroke-linecap:square;stroke-linejoin:miter;stroke-width:0.8;"/>
   </g>
   <g id="patch_5">
    <path d="M 122.94 410.112 
L 885.168 410.112 
" style="fill:none;stroke:#000000;stroke-linecap:square;stroke-linejoin:miter;stroke-width:0.8;"/>
   </g>
   <g id="patch_6">
    <path d="M 122.94 55.296 
L 885.168 55.296 
" style="fill:none;stroke:#000000;stroke-linecap:square;stroke-linejoin:miter;stroke-width:0.8;"/>
   </g>
  </g>
 </g>
 <defs>
  <clipPath id="p6bd9304bee">
   <rect height="354.816" width="762.228" x="122.94" y="55.296"/>
  </clipPath>
 </defs>
</svg>
