<?xml version="1.0" encoding="utf-8" standalone="no"?>
<!DOCTYPE svg PUBLIC "-//W3C//DTD SVG 1.1//EN"
  "http://www.w3.org/Graphics/SVG/1.1/DTD/svg11.dtd">
<!-- Created with matplotlib (https://matplotlib.org/) -->
<svg height="460.8pt" version="1.1" viewBox="0 0 983.52 460.8" width="983.52pt" xmlns="http://www.w3.org/2000/svg" xmlns:xlink="http://www.w3.org/1999/xlink">
 <defs>
  <style type="text/css">
*{stroke-linecap:butt;stroke-linejoin:round;}
  </style>
 </defs>
 <g id="figure_1">
  <g id="patch_1">
   <path d="M 0 460.8 
L 983.52 460.8 
L 983.52 0 
L 0 0 
z
" style="fill:#ffffff;"/>
  </g>
  <g id="axes_1">
   <g id="patch_2">
    <path d="M 122.94 410.112 
L 885.168 410.112 
L 885.168 55.296 
L 122.94 55.296 
z
" style="fill:#ffffff;"/>
   </g>
   <g id="matplotlib.axis_1">
    <g id="xtick_1">
     <g id="line2d_1">
      <defs>
       <path d="M 0 0 
L 0 3.5 
" id="mb62ab3430c" style="stroke:#000000;stroke-width:0.8;"/>
      </defs>
      <g>
       <use style="stroke:#000000;stroke-width:0.8;" x="224.708846" xlink:href="#mb62ab3430c" y="410.112"/>
      </g>
     </g>
     <g id="text_1">
      <!-- −0.5 -->
      <defs>
       <path d="M 10.59375 35.5 
L 73.1875 35.5 
L 73.1875 27.203125 
L 10.59375 27.203125 
z
" id="DejaVuSans-8722"/>
       <path d="M 31.78125 66.40625 
Q 24.171875 66.40625 20.328125 58.90625 
Q 16.5 51.421875 16.5 36.375 
Q 16.5 21.390625 20.328125 13.890625 
Q 24.171875 6.390625 31.78125 6.390625 
Q 39.453125 6.390625 43.28125 13.890625 
Q 47.125 21.390625 47.125 36.375 
Q 47.125 51.421875 43.28125 58.90625 
Q 39.453125 66.40625 31.78125 66.40625 
z
M 31.78125 74.21875 
Q 44.046875 74.21875 50.515625 64.515625 
Q 56.984375 54.828125 56.984375 36.375 
Q 56.984375 17.96875 50.515625 8.265625 
Q 44.046875 -1.421875 31.78125 -1.421875 
Q 19.53125 -1.421875 13.0625 8.265625 
Q 6.59375 17.96875 6.59375 36.375 
Q 6.59375 54.828125 13.0625 64.515625 
Q 19.53125 74.21875 31.78125 74.21875 
z
" id="DejaVuSans-48"/>
       <path d="M 10.6875 12.40625 
L 21 12.40625 
L 21 0 
L 10.6875 0 
z
" id="DejaVuSans-46"/>
       <path d="M 10.796875 72.90625 
L 49.515625 72.90625 
L 49.515625 64.59375 
L 19.828125 64.59375 
L 19.828125 46.734375 
Q 21.96875 47.46875 24.109375 47.828125 
Q 26.265625 48.1875 28.421875 48.1875 
Q 40.625 48.1875 47.75 41.5 
Q 54.890625 34.8125 54.890625 23.390625 
Q 54.890625 11.625 47.5625 5.09375 
Q 40.234375 -1.421875 26.90625 -1.421875 
Q 22.3125 -1.421875 17.546875 -0.640625 
Q 12.796875 0.140625 7.71875 1.703125 
L 7.71875 11.625 
Q 12.109375 9.234375 16.796875 8.0625 
Q 21.484375 6.890625 26.703125 6.890625 
Q 35.15625 6.890625 40.078125 11.328125 
Q 45.015625 15.765625 45.015625 23.390625 
Q 45.015625 31 40.078125 35.4375 
Q 35.15625 39.890625 26.703125 39.890625 
Q 22.75 39.890625 18.8125 39.015625 
Q 14.890625 38.140625 10.796875 36.28125 
z
" id="DejaVuSans-53"/>
      </defs>
      <g transform="translate(212.56744 424.710438)scale(0.1 -0.1)">
       <use xlink:href="#DejaVuSans-8722"/>
       <use x="83.789062" xlink:href="#DejaVuSans-48"/>
       <use x="147.412109" xlink:href="#DejaVuSans-46"/>
       <use x="179.199219" xlink:href="#DejaVuSans-53"/>
      </g>
     </g>
    </g>
    <g id="xtick_2">
     <g id="line2d_2">
      <g>
       <use style="stroke:#000000;stroke-width:0.8;" x="364.381423" xlink:href="#mb62ab3430c" y="410.112"/>
      </g>
     </g>
     <g id="text_2">
      <!-- 0.0 -->
      <g transform="translate(356.42986 424.710438)scale(0.1 -0.1)">
       <use xlink:href="#DejaVuSans-48"/>
       <use x="63.623047" xlink:href="#DejaVuSans-46"/>
       <use x="95.410156" xlink:href="#DejaVuSans-48"/>
      </g>
     </g>
    </g>
    <g id="xtick_3">
     <g id="line2d_3">
      <g>
       <use style="stroke:#000000;stroke-width:0.8;" x="504.054" xlink:href="#mb62ab3430c" y="410.112"/>
      </g>
     </g>
     <g id="text_3">
      <!-- 0.5 -->
      <g transform="translate(496.102437 424.710438)scale(0.1 -0.1)">
       <use xlink:href="#DejaVuSans-48"/>
       <use x="63.623047" xlink:href="#DejaVuSans-46"/>
       <use x="95.410156" xlink:href="#DejaVuSans-53"/>
      </g>
     </g>
    </g>
    <g id="xtick_4">
     <g id="line2d_4">
      <g>
       <use style="stroke:#000000;stroke-width:0.8;" x="643.726577" xlink:href="#mb62ab3430c" y="410.112"/>
      </g>
     </g>
     <g id="text_4">
      <!-- 1.0 -->
      <defs>
       <path d="M 12.40625 8.296875 
L 28.515625 8.296875 
L 28.515625 63.921875 
L 10.984375 60.40625 
L 10.984375 69.390625 
L 28.421875 72.90625 
L 38.28125 72.90625 
L 38.28125 8.296875 
L 54.390625 8.296875 
L 54.390625 0 
L 12.40625 0 
z
" id="DejaVuSans-49"/>
      </defs>
      <g transform="translate(635.775015 424.710438)scale(0.1 -0.1)">
       <use xlink:href="#DejaVuSans-49"/>
       <use x="63.623047" xlink:href="#DejaVuSans-46"/>
       <use x="95.410156" xlink:href="#DejaVuSans-48"/>
      </g>
     </g>
    </g>
    <g id="xtick_5">
     <g id="line2d_5">
      <g>
       <use style="stroke:#000000;stroke-width:0.8;" x="783.399154" xlink:href="#mb62ab3430c" y="410.112"/>
      </g>
     </g>
     <g id="text_5">
      <!-- 1.5 -->
      <g transform="translate(775.447592 424.710438)scale(0.1 -0.1)">
       <use xlink:href="#DejaVuSans-49"/>
       <use x="63.623047" xlink:href="#DejaVuSans-46"/>
       <use x="95.410156" xlink:href="#DejaVuSans-53"/>
      </g>
     </g>
    </g>
   </g>
   <g id="matplotlib.axis_2">
    <g id="ytick_1">
     <g id="line2d_6">
      <defs>
       <path d="M 0 0 
L -3.5 0 
" id="mf9fc2c0e70" style="stroke:#000000;stroke-width:0.8;"/>
      </defs>
      <g>
       <use style="stroke:#000000;stroke-width:0.8;" x="122.94" xlink:href="#mf9fc2c0e70" y="369.213031"/>
      </g>
     </g>
     <g id="text_6">
      <!-- −0.2 -->
      <defs>
       <path d="M 19.1875 8.296875 
L 53.609375 8.296875 
L 53.609375 0 
L 7.328125 0 
L 7.328125 8.296875 
Q 12.9375 14.109375 22.625 23.890625 
Q 32.328125 33.6875 34.8125 36.53125 
Q 39.546875 41.84375 41.421875 45.53125 
Q 43.3125 49.21875 43.3125 52.78125 
Q 43.3125 58.59375 39.234375 62.25 
Q 35.15625 65.921875 28.609375 65.921875 
Q 23.96875 65.921875 18.8125 64.3125 
Q 13.671875 62.703125 7.8125 59.421875 
L 7.8125 69.390625 
Q 13.765625 71.78125 18.9375 73 
Q 24.125 74.21875 28.421875 74.21875 
Q 39.75 74.21875 46.484375 68.546875 
Q 53.21875 62.890625 53.21875 53.421875 
Q 53.21875 48.921875 51.53125 44.890625 
Q 49.859375 40.875 45.40625 35.40625 
Q 44.1875 33.984375 37.640625 27.21875 
Q 31.109375 20.453125 19.1875 8.296875 
z
" id="DejaVuSans-50"/>
      </defs>
      <g transform="translate(91.657187 373.01225)scale(0.1 -0.1)">
       <use xlink:href="#DejaVuSans-8722"/>
       <use x="83.789062" xlink:href="#DejaVuSans-48"/>
       <use x="147.412109" xlink:href="#DejaVuSans-46"/>
       <use x="179.199219" xlink:href="#DejaVuSans-50"/>
      </g>
     </g>
    </g>
    <g id="ytick_2">
     <g id="line2d_7">
      <g>
       <use style="stroke:#000000;stroke-width:0.8;" x="122.94" xlink:href="#mf9fc2c0e70" y="313.344"/>
      </g>
     </g>
     <g id="text_7">
      <!-- 0.0 -->
      <g transform="translate(100.036875 317.143219)scale(0.1 -0.1)">
       <use xlink:href="#DejaVuSans-48"/>
       <use x="63.623047" xlink:href="#DejaVuSans-46"/>
       <use x="95.410156" xlink:href="#DejaVuSans-48"/>
      </g>
     </g>
    </g>
    <g id="ytick_3">
     <g id="line2d_8">
      <g>
       <use style="stroke:#000000;stroke-width:0.8;" x="122.94" xlink:href="#mf9fc2c0e70" y="257.474969"/>
      </g>
     </g>
     <g id="text_8">
      <!-- 0.2 -->
      <g transform="translate(100.036875 261.274188)scale(0.1 -0.1)">
       <use xlink:href="#DejaVuSans-48"/>
       <use x="63.623047" xlink:href="#DejaVuSans-46"/>
       <use x="95.410156" xlink:href="#DejaVuSans-50"/>
      </g>
     </g>
    </g>
    <g id="ytick_4">
     <g id="line2d_9">
      <g>
       <use style="stroke:#000000;stroke-width:0.8;" x="122.94" xlink:href="#mf9fc2c0e70" y="201.605938"/>
      </g>
     </g>
     <g id="text_9">
      <!-- 0.4 -->
      <defs>
       <path d="M 37.796875 64.3125 
L 12.890625 25.390625 
L 37.796875 25.390625 
z
M 35.203125 72.90625 
L 47.609375 72.90625 
L 47.609375 25.390625 
L 58.015625 25.390625 
L 58.015625 17.1875 
L 47.609375 17.1875 
L 47.609375 0 
L 37.796875 0 
L 37.796875 17.1875 
L 4.890625 17.1875 
L 4.890625 26.703125 
z
" id="DejaVuSans-52"/>
      </defs>
      <g transform="translate(100.036875 205.405157)scale(0.1 -0.1)">
       <use xlink:href="#DejaVuSans-48"/>
       <use x="63.623047" xlink:href="#DejaVuSans-46"/>
       <use x="95.410156" xlink:href="#DejaVuSans-52"/>
      </g>
     </g>
    </g>
    <g id="ytick_5">
     <g id="line2d_10">
      <g>
       <use style="stroke:#000000;stroke-width:0.8;" x="122.94" xlink:href="#mf9fc2c0e70" y="145.736907"/>
      </g>
     </g>
     <g id="text_10">
      <!-- 0.6 -->
      <defs>
       <path d="M 33.015625 40.375 
Q 26.375 40.375 22.484375 35.828125 
Q 18.609375 31.296875 18.609375 23.390625 
Q 18.609375 15.53125 22.484375 10.953125 
Q 26.375 6.390625 33.015625 6.390625 
Q 39.65625 6.390625 43.53125 10.953125 
Q 47.40625 15.53125 47.40625 23.390625 
Q 47.40625 31.296875 43.53125 35.828125 
Q 39.65625 40.375 33.015625 40.375 
z
M 52.59375 71.296875 
L 52.59375 62.3125 
Q 48.875 64.0625 45.09375 64.984375 
Q 41.3125 65.921875 37.59375 65.921875 
Q 27.828125 65.921875 22.671875 59.328125 
Q 17.53125 52.734375 16.796875 39.40625 
Q 19.671875 43.65625 24.015625 45.921875 
Q 28.375 48.1875 33.59375 48.1875 
Q 44.578125 48.1875 50.953125 41.515625 
Q 57.328125 34.859375 57.328125 23.390625 
Q 57.328125 12.15625 50.6875 5.359375 
Q 44.046875 -1.421875 33.015625 -1.421875 
Q 20.359375 -1.421875 13.671875 8.265625 
Q 6.984375 17.96875 6.984375 36.375 
Q 6.984375 53.65625 15.1875 63.9375 
Q 23.390625 74.21875 37.203125 74.21875 
Q 40.921875 74.21875 44.703125 73.484375 
Q 48.484375 72.75 52.59375 71.296875 
z
" id="DejaVuSans-54"/>
      </defs>
      <g transform="translate(100.036875 149.536126)scale(0.1 -0.1)">
       <use xlink:href="#DejaVuSans-48"/>
       <use x="63.623047" xlink:href="#DejaVuSans-46"/>
       <use x="95.410156" xlink:href="#DejaVuSans-54"/>
      </g>
     </g>
    </g>
    <g id="ytick_6">
     <g id="line2d_11">
      <g>
       <use style="stroke:#000000;stroke-width:0.8;" x="122.94" xlink:href="#mf9fc2c0e70" y="89.867877"/>
      </g>
     </g>
     <g id="text_11">
      <!-- 0.8 -->
      <defs>
       <path d="M 31.78125 34.625 
Q 24.75 34.625 20.71875 30.859375 
Q 16.703125 27.09375 16.703125 20.515625 
Q 16.703125 13.921875 20.71875 10.15625 
Q 24.75 6.390625 31.78125 6.390625 
Q 38.8125 6.390625 42.859375 10.171875 
Q 46.921875 13.96875 46.921875 20.515625 
Q 46.921875 27.09375 42.890625 30.859375 
Q 38.875 34.625 31.78125 34.625 
z
M 21.921875 38.8125 
Q 15.578125 40.375 12.03125 44.71875 
Q 8.5 49.078125 8.5 55.328125 
Q 8.5 64.0625 14.71875 69.140625 
Q 20.953125 74.21875 31.78125 74.21875 
Q 42.671875 74.21875 48.875 69.140625 
Q 55.078125 64.0625 55.078125 55.328125 
Q 55.078125 49.078125 51.53125 44.71875 
Q 48 40.375 41.703125 38.8125 
Q 48.828125 37.15625 52.796875 32.3125 
Q 56.78125 27.484375 56.78125 20.515625 
Q 56.78125 9.90625 50.3125 4.234375 
Q 43.84375 -1.421875 31.78125 -1.421875 
Q 19.734375 -1.421875 13.25 4.234375 
Q 6.78125 9.90625 6.78125 20.515625 
Q 6.78125 27.484375 10.78125 32.3125 
Q 14.796875 37.15625 21.921875 38.8125 
z
M 18.3125 54.390625 
Q 18.3125 48.734375 21.84375 45.5625 
Q 25.390625 42.390625 31.78125 42.390625 
Q 38.140625 42.390625 41.71875 45.5625 
Q 45.3125 48.734375 45.3125 54.390625 
Q 45.3125 60.0625 41.71875 63.234375 
Q 38.140625 66.40625 31.78125 66.40625 
Q 25.390625 66.40625 21.84375 63.234375 
Q 18.3125 60.0625 18.3125 54.390625 
z
" id="DejaVuSans-56"/>
      </defs>
      <g transform="translate(100.036875 93.667095)scale(0.1 -0.1)">
       <use xlink:href="#DejaVuSans-48"/>
       <use x="63.623047" xlink:href="#DejaVuSans-46"/>
       <use x="95.410156" xlink:href="#DejaVuSans-56"/>
      </g>
     </g>
    </g>
   </g>
   <g id="line2d_12">
    <path clip-path="url(#p4484761f78)" d="M 364.381423 313.344 
L 367.830128 313.344 
L 369.554481 316.330667 
L 371.278834 313.344 
L 374.72754 313.344 
L 374.72754 313.344 
L 376.451893 316.330667 
L 374.72754 319.317333 
L 378.176245 319.317333 
L 379.900598 322.304 
L 379.900598 322.304 
L 381.624951 319.317333 
L 385.073657 319.317333 
L 383.349304 316.330667 
L 385.073657 313.344 
L 385.073657 313.344 
L 388.522362 313.344 
L 390.246715 316.330667 
L 391.971068 313.344 
L 395.419773 313.344 
L 397.144126 316.330667 
L 395.419773 319.317333 
L 398.868479 319.317333 
L 400.592832 322.304 
L 400.592832 322.304 
L 398.868479 325.290667 
L 395.419773 325.290667 
L 397.144126 328.277333 
L 395.419773 331.264 
L 395.419773 331.264 
L 398.868479 331.264 
L 400.592832 334.250667 
L 402.317185 331.264 
L 405.76589 331.264 
L 405.76589 331.264 
L 407.490243 334.250667 
L 405.76589 337.237333 
L 409.214596 337.237333 
L 410.938949 340.224 
L 410.938949 340.224 
L 412.663301 337.237333 
L 416.112007 337.237333 
L 414.387654 334.250667 
L 416.112007 331.264 
L 416.112007 331.264 
L 419.560713 331.264 
L 421.285065 334.250667 
L 423.009418 331.264 
L 426.458124 331.264 
L 426.458124 331.264 
L 424.733771 328.277333 
L 426.458124 325.290667 
L 423.009418 325.290667 
L 421.285065 322.304 
L 421.285065 322.304 
L 423.009418 319.317333 
L 426.458124 319.317333 
L 424.733771 316.330667 
L 426.458124 313.344 
L 426.458124 313.344 
L 429.906829 313.344 
L 431.631182 316.330667 
L 433.355535 313.344 
L 436.804241 313.344 
L 436.804241 313.344 
L 438.528593 316.330667 
L 436.804241 319.317333 
L 440.252946 319.317333 
L 441.977299 322.304 
L 441.977299 322.304 
L 443.701652 319.317333 
L 447.150357 319.317333 
L 445.426005 316.330667 
L 447.150357 313.344 
L 447.150357 313.344 
L 450.599063 313.344 
L 452.323416 316.330667 
L 454.047769 313.344 
L 457.496474 313.344 
L 457.496474 313.344 
L 459.220827 316.330667 
L 457.496474 319.317333 
L 460.94518 319.317333 
L 462.669533 322.304 
L 462.669533 322.304 
L 460.94518 325.290667 
L 457.496474 325.290667 
L 459.220827 328.277333 
L 457.496474 331.264 
L 457.496474 331.264 
L 460.94518 331.264 
L 462.669533 334.250667 
L 464.393886 331.264 
L 467.842591 331.264 
L 467.842591 331.264 
L 469.566944 334.250667 
L 467.842591 337.237333 
L 471.291297 337.237333 
L 473.01565 340.224 
L 473.01565 340.224 
L 471.291297 343.210667 
L 467.842591 343.210667 
L 469.566944 346.197333 
L 467.842591 349.184 
L 467.842591 349.184 
L 464.393886 349.184 
L 462.669533 346.197333 
L 460.94518 349.184 
L 457.496474 349.184 
L 457.496474 349.184 
L 459.220827 352.170667 
L 457.496474 355.157333 
L 460.94518 355.157333 
L 462.669533 358.144 
L 462.669533 358.144 
L 460.94518 361.130667 
L 457.496474 361.130667 
L 459.220827 364.117333 
L 457.496474 367.104 
L 457.496474 367.104 
L 460.94518 367.104 
L 462.669533 370.090667 
L 464.393886 367.104 
L 467.842591 367.104 
L 467.842591 367.104 
L 469.566944 370.090667 
L 467.842591 373.077333 
L 471.291297 373.077333 
L 473.01565 376.064 
L 473.01565 376.064 
L 474.740002 373.077333 
L 478.188708 373.077333 
L 476.464355 370.090667 
L 478.188708 367.104 
L 478.188708 367.104 
L 481.637414 367.104 
L 483.361766 370.090667 
L 485.086119 367.104 
L 488.534825 367.104 
L 488.534825 367.104 
L 490.259178 370.090667 
L 488.534825 373.077333 
L 491.98353 373.077333 
L 493.707883 376.064 
L 493.707883 376.064 
L 491.98353 379.050667 
L 488.534825 379.050667 
L 490.259178 382.037333 
L 488.534825 385.024 
L 488.534825 385.024 
L 491.98353 385.024 
L 493.707883 388.010667 
L 495.432236 385.024 
L 498.880942 385.024 
L 498.880942 385.024 
L 500.605294 388.010667 
L 498.880942 390.997333 
L 502.329647 390.997333 
L 504.054 393.984 
L 504.054 393.984 
L 505.778353 390.997333 
L 509.227058 390.997333 
L 507.502706 388.010667 
L 509.227058 385.024 
L 509.227058 385.024 
L 512.675764 385.024 
L 514.400117 388.010667 
L 516.12447 385.024 
L 519.573175 385.024 
L 519.573175 385.024 
L 517.848822 382.037333 
L 519.573175 379.050667 
L 516.12447 379.050667 
L 514.400117 376.064 
L 514.400117 376.064 
L 516.12447 373.077333 
L 519.573175 373.077333 
L 517.848822 370.090667 
L 519.573175 367.104 
L 519.573175 367.104 
L 523.021881 367.104 
L 524.746234 370.090667 
L 526.470586 367.104 
L 529.919292 367.104 
L 529.919292 367.104 
L 531.643645 370.090667 
L 529.919292 373.077333 
L 533.367998 373.077333 
L 535.09235 376.064 
L 535.09235 376.064 
L 536.816703 373.077333 
L 540.265409 373.077333 
L 538.541056 370.090667 
L 540.265409 367.104 
L 540.265409 367.104 
L 543.714114 367.104 
L 545.438467 370.090667 
L 547.16282 367.104 
L 550.611526 367.104 
L 550.611526 367.104 
L 548.887173 364.117333 
L 550.611526 361.130667 
L 547.16282 361.130667 
L 545.438467 358.144 
L 545.438467 358.144 
L 547.16282 355.157333 
L 550.611526 355.157333 
L 548.887173 352.170667 
L 550.611526 349.184 
L 550.611526 349.184 
L 547.16282 349.184 
L 545.438467 346.197333 
L 543.714114 349.184 
L 540.265409 349.184 
L 540.265409 349.184 
L 538.541056 346.197333 
L 540.265409 343.210667 
L 536.816703 343.210667 
L 535.09235 340.224 
L 535.09235 340.224 
L 536.816703 337.237333 
L 540.265409 337.237333 
L 538.541056 334.250667 
L 540.265409 331.264 
L 540.265409 331.264 
L 543.714114 331.264 
L 545.438467 334.250667 
L 547.16282 331.264 
L 550.611526 331.264 
L 550.611526 331.264 
L 548.887173 328.277333 
L 550.611526 325.290667 
L 547.16282 325.290667 
L 545.438467 322.304 
L 545.438467 322.304 
L 547.16282 319.317333 
L 550.611526 319.317333 
L 548.887173 316.330667 
L 550.611526 313.344 
L 550.611526 313.344 
L 554.060231 313.344 
L 555.784584 316.330667 
L 557.508937 313.344 
L 560.957643 313.344 
L 560.957643 313.344 
L 562.681995 316.330667 
L 560.957643 319.317333 
L 564.406348 319.317333 
L 566.130701 322.304 
L 566.130701 322.304 
L 567.855054 319.317333 
L 571.303759 319.317333 
L 569.579407 316.330667 
L 571.303759 313.344 
L 571.303759 313.344 
L 574.752465 313.344 
L 576.476818 316.330667 
L 578.201171 313.344 
L 581.649876 313.344 
L 581.649876 313.344 
L 583.374229 316.330667 
L 581.649876 319.317333 
L 585.098582 319.317333 
L 586.822935 322.304 
L 586.822935 322.304 
L 585.098582 325.290667 
L 581.649876 325.290667 
L 583.374229 328.277333 
L 581.649876 331.264 
L 581.649876 331.264 
L 585.098582 331.264 
L 586.822935 334.250667 
L 588.547287 331.264 
L 591.995993 331.264 
L 591.995993 331.264 
L 593.720346 334.250667 
L 591.995993 337.237333 
L 595.444699 337.237333 
L 597.169051 340.224 
L 597.169051 340.224 
L 598.893404 337.237333 
L 602.34211 337.237333 
L 600.617757 334.250667 
L 602.34211 331.264 
L 602.34211 331.264 
L 605.790815 331.264 
L 607.515168 334.250667 
L 609.239521 331.264 
L 612.688227 331.264 
L 612.688227 331.264 
L 610.963874 328.277333 
L 612.688227 325.290667 
L 609.239521 325.290667 
L 607.515168 322.304 
L 607.515168 322.304 
L 609.239521 319.317333 
L 612.688227 319.317333 
L 610.963874 316.330667 
L 612.688227 313.344 
L 612.688227 313.344 
L 616.136932 313.344 
L 617.861285 316.330667 
L 619.585638 313.344 
L 623.034343 313.344 
L 623.034343 313.344 
L 624.758696 316.330667 
L 623.034343 319.317333 
L 626.483049 319.317333 
L 628.207402 322.304 
L 628.207402 322.304 
L 629.931755 319.317333 
L 633.38046 319.317333 
L 631.656107 316.330667 
L 633.38046 313.344 
L 633.38046 313.344 
L 636.829166 313.344 
L 638.553519 316.330667 
L 640.277872 313.344 
L 643.726577 313.344 
L 643.726577 313.344 
L 642.002224 310.357333 
L 643.726577 307.370667 
L 640.277872 307.370667 
L 638.553519 304.384 
L 638.553519 304.384 
L 640.277872 301.397333 
L 643.726577 301.397333 
L 642.002224 298.410667 
L 643.726577 295.424 
L 643.726577 295.424 
L 640.277872 295.424 
L 638.553519 292.437333 
L 636.829166 295.424 
L 633.38046 295.424 
L 633.38046 295.424 
L 631.656107 292.437333 
L 633.38046 289.450667 
L 629.931755 289.450667 
L 628.207402 286.464 
L 628.207402 286.464 
L 629.931755 283.477333 
L 633.38046 283.477333 
L 631.656107 280.490667 
L 633.38046 277.504 
L 633.38046 277.504 
L 636.829166 277.504 
L 638.553519 280.490667 
L 640.277872 277.504 
L 643.726577 277.504 
L 643.726577 277.504 
L 642.002224 274.517333 
L 643.726577 271.530667 
L 640.277872 271.530667 
L 638.553519 268.544 
L 638.553519 268.544 
L 640.277872 265.557333 
L 643.726577 265.557333 
L 642.002224 262.570667 
L 643.726577 259.584 
L 643.726577 259.584 
L 640.277872 259.584 
L 638.553519 256.597333 
L 636.829166 259.584 
L 633.38046 259.584 
L 633.38046 259.584 
L 631.656107 256.597333 
L 633.38046 253.610667 
L 629.931755 253.610667 
L 628.207402 250.624 
L 628.207402 250.624 
L 626.483049 253.610667 
L 623.034343 253.610667 
L 624.758696 256.597333 
L 623.034343 259.584 
L 623.034343 259.584 
L 619.585638 259.584 
L 617.861285 256.597333 
L 616.136932 259.584 
L 612.688227 259.584 
L 612.688227 259.584 
L 610.963874 256.597333 
L 612.688227 253.610667 
L 609.239521 253.610667 
L 607.515168 250.624 
L 609.239521 247.637333 
L 612.688227 247.637333 
L 610.963874 244.650667 
L 612.688227 241.664 
L 612.688227 241.664 
L 609.239521 241.664 
L 607.515168 238.677333 
L 605.790815 241.664 
L 602.34211 241.664 
L 602.34211 241.664 
L 600.617757 238.677333 
L 602.34211 235.690667 
L 598.893404 235.690667 
L 597.169051 232.704 
L 597.169051 232.704 
L 598.893404 229.717333 
L 602.34211 229.717333 
L 600.617757 226.730667 
L 602.34211 223.744 
L 602.34211 223.744 
L 605.790815 223.744 
L 607.515168 226.730667 
L 609.239521 223.744 
L 612.688227 223.744 
L 612.688227 223.744 
L 610.963874 220.757333 
L 612.688227 217.770667 
L 609.239521 217.770667 
L 607.515168 214.784 
L 607.515168 214.784 
L 609.239521 211.797333 
L 612.688227 211.797333 
L 610.963874 208.810667 
L 612.688227 205.824 
L 612.688227 205.824 
L 616.136932 205.824 
L 617.861285 208.810667 
L 619.585638 205.824 
L 623.034343 205.824 
L 623.034343 205.824 
L 624.758696 208.810667 
L 623.034343 211.797333 
L 626.483049 211.797333 
L 628.207402 214.784 
L 628.207402 214.784 
L 629.931755 211.797333 
L 633.38046 211.797333 
L 631.656107 208.810667 
L 633.38046 205.824 
L 636.829166 205.824 
L 638.553519 208.810667 
L 640.277872 205.824 
L 643.726577 205.824 
L 643.726577 205.824 
L 642.002224 202.837333 
L 643.726577 199.850667 
L 640.277872 199.850667 
L 638.553519 196.864 
L 638.553519 196.864 
L 640.277872 193.877333 
L 643.726577 193.877333 
L 642.002224 190.890667 
L 643.726577 187.904 
L 643.726577 187.904 
L 640.277872 187.904 
L 638.553519 184.917333 
L 636.829166 187.904 
L 633.38046 187.904 
L 633.38046 187.904 
L 631.656107 184.917333 
L 633.38046 181.930667 
L 629.931755 181.930667 
L 628.207402 178.944 
L 628.207402 178.944 
L 629.931755 175.957333 
L 633.38046 175.957333 
L 631.656107 172.970667 
L 633.38046 169.984 
L 633.38046 169.984 
L 636.829166 169.984 
L 638.553519 172.970667 
L 640.277872 169.984 
L 643.726577 169.984 
L 643.726577 169.984 
L 642.002224 166.997333 
L 643.726577 164.010667 
L 640.277872 164.010667 
L 638.553519 161.024 
L 638.553519 161.024 
L 640.277872 158.037333 
L 643.726577 158.037333 
L 642.002224 155.050667 
L 643.726577 152.064 
L 643.726577 152.064 
L 640.277872 152.064 
L 638.553519 149.077333 
L 636.829166 152.064 
L 633.38046 152.064 
L 633.38046 152.064 
L 631.656107 149.077333 
L 633.38046 146.090667 
L 629.931755 146.090667 
L 628.207402 143.104 
L 628.207402 143.104 
L 626.483049 146.090667 
L 623.034343 146.090667 
L 624.758696 149.077333 
L 623.034343 152.064 
L 623.034343 152.064 
L 619.585638 152.064 
L 617.861285 149.077333 
L 616.136932 152.064 
L 612.688227 152.064 
L 612.688227 152.064 
L 610.963874 149.077333 
L 612.688227 146.090667 
L 609.239521 146.090667 
L 607.515168 143.104 
L 609.239521 140.117333 
L 612.688227 140.117333 
L 610.963874 137.130667 
L 612.688227 134.144 
L 612.688227 134.144 
L 609.239521 134.144 
L 607.515168 131.157333 
L 605.790815 134.144 
L 602.34211 134.144 
L 602.34211 134.144 
L 600.617757 131.157333 
L 602.34211 128.170667 
L 598.893404 128.170667 
L 597.169051 125.184 
L 597.169051 125.184 
L 595.444699 128.170667 
L 591.995993 128.170667 
L 593.720346 131.157333 
L 591.995993 134.144 
L 591.995993 134.144 
L 588.547287 134.144 
L 586.822935 131.157333 
L 585.098582 134.144 
L 581.649876 134.144 
L 581.649876 134.144 
L 583.374229 137.130667 
L 581.649876 140.117333 
L 585.098582 140.117333 
L 586.822935 143.104 
L 586.822935 143.104 
L 585.098582 146.090667 
L 581.649876 146.090667 
L 583.374229 149.077333 
L 581.649876 152.064 
L 581.649876 152.064 
L 578.201171 152.064 
L 576.476818 149.077333 
L 574.752465 152.064 
L 571.303759 152.064 
L 571.303759 152.064 
L 569.579407 149.077333 
L 571.303759 146.090667 
L 567.855054 146.090667 
L 566.130701 143.104 
L 566.130701 143.104 
L 564.406348 146.090667 
L 560.957643 146.090667 
L 562.681995 149.077333 
L 560.957643 152.064 
L 560.957643 152.064 
L 557.508937 152.064 
L 555.784584 149.077333 
L 554.060231 152.064 
L 550.611526 152.064 
L 550.611526 152.064 
L 548.887173 149.077333 
L 550.611526 146.090667 
L 547.16282 146.090667 
L 545.438467 143.104 
L 547.16282 140.117333 
L 550.611526 140.117333 
L 548.887173 137.130667 
L 550.611526 134.144 
L 550.611526 134.144 
L 547.16282 134.144 
L 545.438467 131.157333 
L 543.714114 134.144 
L 540.265409 134.144 
L 540.265409 134.144 
L 538.541056 131.157333 
L 540.265409 128.170667 
L 536.816703 128.170667 
L 535.09235 125.184 
L 535.09235 125.184 
L 536.816703 122.197333 
L 540.265409 122.197333 
L 538.541056 119.210667 
L 540.265409 116.224 
L 540.265409 116.224 
L 543.714114 116.224 
L 545.438467 119.210667 
L 547.16282 116.224 
L 550.611526 116.224 
L 550.611526 116.224 
L 548.887173 113.237333 
L 550.611526 110.250667 
L 547.16282 110.250667 
L 545.438467 107.264 
L 545.438467 107.264 
L 547.16282 104.277333 
L 550.611526 104.277333 
L 548.887173 101.290667 
L 550.611526 98.304 
L 550.611526 98.304 
L 547.16282 98.304 
L 545.438467 95.317333 
L 543.714114 98.304 
L 540.265409 98.304 
L 540.265409 98.304 
L 538.541056 95.317333 
L 540.265409 92.330667 
L 536.816703 92.330667 
L 535.09235 89.344 
L 535.09235 89.344 
L 533.367998 92.330667 
L 529.919292 92.330667 
L 531.643645 95.317333 
L 529.919292 98.304 
L 529.919292 98.304 
L 526.470586 98.304 
L 524.746234 95.317333 
L 523.021881 98.304 
L 519.573175 98.304 
L 519.573175 98.304 
L 517.848822 95.317333 
L 519.573175 92.330667 
L 516.12447 92.330667 
L 514.400117 89.344 
L 516.12447 86.357333 
L 519.573175 86.357333 
L 517.848822 83.370667 
L 519.573175 80.384 
L 516.12447 80.384 
L 514.400117 77.397333 
L 512.675764 80.384 
L 509.227058 80.384 
L 509.227058 80.384 
L 507.502706 77.397333 
L 509.227058 74.410667 
L 505.778353 74.410667 
L 504.054 71.424 
L 504.054 71.424 
L 502.329647 74.410667 
L 498.880942 74.410667 
L 500.605294 77.397333 
L 498.880942 80.384 
L 498.880942 80.384 
L 495.432236 80.384 
L 493.707883 77.397333 
L 491.98353 80.384 
L 488.534825 80.384 
L 488.534825 80.384 
L 490.259178 83.370667 
L 488.534825 86.357333 
L 491.98353 86.357333 
L 493.707883 89.344 
L 493.707883 89.344 
L 491.98353 92.330667 
L 488.534825 92.330667 
L 490.259178 95.317333 
L 488.534825 98.304 
L 488.534825 98.304 
L 485.086119 98.304 
L 483.361766 95.317333 
L 481.637414 98.304 
L 478.188708 98.304 
L 478.188708 98.304 
L 476.464355 95.317333 
L 478.188708 92.330667 
L 474.740002 92.330667 
L 473.01565 89.344 
L 473.01565 89.344 
L 471.291297 92.330667 
L 467.842591 92.330667 
L 469.566944 95.317333 
L 467.842591 98.304 
L 467.842591 98.304 
L 464.393886 98.304 
L 462.669533 95.317333 
L 460.94518 98.304 
L 457.496474 98.304 
L 457.496474 98.304 
L 459.220827 101.290667 
L 457.496474 104.277333 
L 460.94518 104.277333 
L 462.669533 107.264 
L 462.669533 107.264 
L 460.94518 110.250667 
L 457.496474 110.250667 
L 459.220827 113.237333 
L 457.496474 116.224 
L 457.496474 116.224 
L 460.94518 116.224 
L 462.669533 119.210667 
L 464.393886 116.224 
L 467.842591 116.224 
L 467.842591 116.224 
L 469.566944 119.210667 
L 467.842591 122.197333 
L 471.291297 122.197333 
L 473.01565 125.184 
L 473.01565 125.184 
L 471.291297 128.170667 
L 467.842591 128.170667 
L 469.566944 131.157333 
L 467.842591 134.144 
L 467.842591 134.144 
L 464.393886 134.144 
L 462.669533 131.157333 
L 460.94518 134.144 
L 457.496474 134.144 
L 457.496474 134.144 
L 459.220827 137.130667 
L 457.496474 140.117333 
L 460.94518 140.117333 
L 462.669533 143.104 
L 462.669533 143.104 
L 460.94518 146.090667 
L 457.496474 146.090667 
L 459.220827 149.077333 
L 457.496474 152.064 
L 457.496474 152.064 
L 454.047769 152.064 
L 452.323416 149.077333 
L 450.599063 152.064 
L 447.150357 152.064 
L 447.150357 152.064 
L 445.426005 149.077333 
L 447.150357 146.090667 
L 443.701652 146.090667 
L 441.977299 143.104 
L 441.977299 143.104 
L 440.252946 146.090667 
L 436.804241 146.090667 
L 438.528593 149.077333 
L 436.804241 152.064 
L 436.804241 152.064 
L 433.355535 152.064 
L 431.631182 149.077333 
L 429.906829 152.064 
L 426.458124 152.064 
L 426.458124 152.064 
L 424.733771 149.077333 
L 426.458124 146.090667 
L 423.009418 146.090667 
L 421.285065 143.104 
L 421.285065 143.104 
L 423.009418 140.117333 
L 426.458124 140.117333 
L 424.733771 137.130667 
L 426.458124 134.144 
L 426.458124 134.144 
L 423.009418 134.144 
L 421.285065 131.157333 
L 419.560713 134.144 
L 416.112007 134.144 
L 416.112007 134.144 
L 414.387654 131.157333 
L 416.112007 128.170667 
L 412.663301 128.170667 
L 410.938949 125.184 
L 410.938949 125.184 
L 409.214596 128.170667 
L 405.76589 128.170667 
L 407.490243 131.157333 
L 405.76589 134.144 
L 405.76589 134.144 
L 402.317185 134.144 
L 400.592832 131.157333 
L 398.868479 134.144 
L 395.419773 134.144 
L 395.419773 134.144 
L 397.144126 137.130667 
L 395.419773 140.117333 
L 398.868479 140.117333 
L 400.592832 143.104 
L 400.592832 143.104 
L 398.868479 146.090667 
L 395.419773 146.090667 
L 397.144126 149.077333 
L 395.419773 152.064 
L 395.419773 152.064 
L 391.971068 152.064 
L 390.246715 149.077333 
L 388.522362 152.064 
L 385.073657 152.064 
L 385.073657 152.064 
L 383.349304 149.077333 
L 385.073657 146.090667 
L 381.624951 146.090667 
L 379.900598 143.104 
L 379.900598 143.104 
L 378.176245 146.090667 
L 374.72754 146.090667 
L 376.451893 149.077333 
L 374.72754 152.064 
L 374.72754 152.064 
L 371.278834 152.064 
L 369.554481 149.077333 
L 367.830128 152.064 
L 364.381423 152.064 
L 364.381423 152.064 
L 366.105776 155.050667 
L 364.381423 158.037333 
L 367.830128 158.037333 
L 369.554481 161.024 
L 369.554481 161.024 
L 367.830128 164.010667 
L 364.381423 164.010667 
L 366.105776 166.997333 
L 364.381423 169.984 
L 364.381423 169.984 
L 367.830128 169.984 
L 369.554481 172.970667 
L 371.278834 169.984 
L 374.72754 169.984 
L 374.72754 169.984 
L 376.451893 172.970667 
L 374.72754 175.957333 
L 378.176245 175.957333 
L 379.900598 178.944 
L 379.900598 178.944 
L 378.176245 181.930667 
L 374.72754 181.930667 
L 376.451893 184.917333 
L 374.72754 187.904 
L 374.72754 187.904 
L 371.278834 187.904 
L 369.554481 184.917333 
L 367.830128 187.904 
L 364.381423 187.904 
L 364.381423 187.904 
L 366.105776 190.890667 
L 364.381423 193.877333 
L 367.830128 193.877333 
L 369.554481 196.864 
L 369.554481 196.864 
L 367.830128 199.850667 
L 364.381423 199.850667 
L 366.105776 202.837333 
L 364.381423 205.824 
L 364.381423 205.824 
L 367.830128 205.824 
L 369.554481 208.810667 
L 371.278834 205.824 
L 374.72754 205.824 
L 374.72754 205.824 
L 376.451893 208.810667 
L 374.72754 211.797333 
L 378.176245 211.797333 
L 379.900598 214.784 
L 379.900598 214.784 
L 381.624951 211.797333 
L 385.073657 211.797333 
L 383.349304 208.810667 
L 385.073657 205.824 
L 385.073657 205.824 
L 388.522362 205.824 
L 390.246715 208.810667 
L 391.971068 205.824 
L 395.419773 205.824 
L 395.419773 205.824 
L 397.144126 208.810667 
L 395.419773 211.797333 
L 398.868479 211.797333 
L 400.592832 214.784 
L 400.592832 214.784 
L 398.868479 217.770667 
L 395.419773 217.770667 
L 397.144126 220.757333 
L 395.419773 223.744 
L 395.419773 223.744 
L 398.868479 223.744 
L 400.592832 226.730667 
L 402.317185 223.744 
L 405.76589 223.744 
L 405.76589 223.744 
L 407.490243 226.730667 
L 405.76589 229.717333 
L 409.214596 229.717333 
L 410.938949 232.704 
L 410.938949 232.704 
L 409.214596 235.690667 
L 405.76589 235.690667 
L 407.490243 238.677333 
L 405.76589 241.664 
L 405.76589 241.664 
L 402.317185 241.664 
L 400.592832 238.677333 
L 398.868479 241.664 
L 395.419773 241.664 
L 395.419773 241.664 
L 397.144126 244.650667 
L 395.419773 247.637333 
L 398.868479 247.637333 
L 400.592832 250.624 
L 400.592832 250.624 
L 398.868479 253.610667 
L 395.419773 253.610667 
L 397.144126 256.597333 
L 395.419773 259.584 
L 395.419773 259.584 
L 391.971068 259.584 
L 390.246715 256.597333 
L 388.522362 259.584 
L 385.073657 259.584 
L 385.073657 259.584 
L 383.349304 256.597333 
L 385.073657 253.610667 
L 381.624951 253.610667 
L 379.900598 250.624 
L 379.900598 250.624 
L 378.176245 253.610667 
L 374.72754 253.610667 
L 376.451893 256.597333 
L 374.72754 259.584 
L 374.72754 259.584 
L 371.278834 259.584 
L 369.554481 256.597333 
L 367.830128 259.584 
L 364.381423 259.584 
L 364.381423 259.584 
L 366.105776 262.570667 
L 364.381423 265.557333 
L 367.830128 265.557333 
L 369.554481 268.544 
L 369.554481 268.544 
L 367.830128 271.530667 
L 364.381423 271.530667 
L 366.105776 274.517333 
L 364.381423 277.504 
L 364.381423 277.504 
L 367.830128 277.504 
L 369.554481 280.490667 
L 371.278834 277.504 
L 374.72754 277.504 
L 374.72754 277.504 
L 376.451893 280.490667 
L 374.72754 283.477333 
L 378.176245 283.477333 
L 379.900598 286.464 
L 379.900598 286.464 
L 378.176245 289.450667 
L 374.72754 289.450667 
L 376.451893 292.437333 
L 374.72754 295.424 
L 374.72754 295.424 
L 371.278834 295.424 
L 369.554481 292.437333 
L 367.830128 295.424 
L 364.381423 295.424 
L 364.381423 295.424 
L 366.105776 298.410667 
L 364.381423 301.397333 
L 367.830128 301.397333 
L 369.554481 304.384 
L 369.554481 304.384 
L 367.830128 307.370667 
L 364.381423 307.370667 
L 366.105776 310.357333 
L 364.381423 313.344 
L 364.381423 313.344 
" style="fill:none;stroke:#458f2a;stroke-linecap:square;stroke-width:0.8;"/>
   </g>
   <g id="patch_3">
    <path d="M 122.94 410.112 
L 122.94 55.296 
" style="fill:none;stroke:#000000;stroke-linecap:square;stroke-linejoin:miter;stroke-width:0.8;"/>
   </g>
   <g id="patch_4">
    <path d="M 885.168 410.112 
L 885.168 55.296 
" style="fill:none;stroke:#000000;stroke-linecap:square;stroke-linejoin:miter;stroke-width:0.8;"/>
   </g>
   <g id="patch_5">
    <path d="M 122.94 410.112 
L 885.168 410.112 
" style="fill:none;stroke:#000000;stroke-linecap:square;stroke-linejoin:miter;stroke-width:0.8;"/>
   </g>
   <g id="patch_6">
    <path d="M 122.94 55.296 
L 885.168 55.296 
" style="fill:none;stroke:#000000;stroke-linecap:square;stroke-linejoin:miter;stroke-width:0.8;"/>
   </g>
  </g>
 </g>
 <defs>
  <clipPath id="p4484761f78">
   <rect height="354.816" width="762.228" x="122.94" y="55.296"/>
  </clipPath>
 </defs>
</svg>
